<svg width="40" height="40" viewBox="0 0 40 40" fill="none" xmlns="http://www.w3.org/2000/svg">
<path d="M34.8457 32.9632L32.6792 26.4H30.302L31.6221 32.8H8.37871L9.69889 26.4H7.32161L5.15354 32.9632C4.6036 34.6336 5.57828 36 7.32161 36H32.6792C34.4226 36 35.3972 34.6336 34.8457 32.9632ZM27.9247 12C27.9247 7.5824 24.3778 4 20.0004 4C15.6231 4 12.0762 7.5824 12.0762 12C12.0762 19.64 20.0004 28 20.0004 28C20.0004 28 27.9247 19.64 27.9247 12ZM15.7213 12.096C15.7213 9.7104 17.6358 7.7776 20.0004 7.7776C22.365 7.7776 24.2795 9.7104 24.2795 12.096C24.2795 14.4832 22.3634 16.416 20.0004 16.416C17.6374 16.416 15.7213 14.4816 15.7213 12.096Z" fill="white"/>
</svg>
