<svg xmlns="http://www.w3.org/2000/svg" width="531.04" height="130" viewBox="0 0 531.04 130"><title>Illinois Tech</title><path d="M540.33,52.89h-8.64V71h-15V52.89h-8.64V97.15h8.64V78.69h15V97.15h8.64ZM495.58,83.54q-1.56,6.27-7.46,6.27-6.78,0-7.58-8.32a24.18,24.18,0,0,1-.13-2.49V75q0-9.51,1.68-11.87a7,7,0,0,1,6-2.92q6,0,7.46,6.28h8.76A16.86,16.86,0,0,0,499,56.22a16.08,16.08,0,0,0-10.91-3.7,16.39,16.39,0,0,0-11.94,4.85A14,14,0,0,0,472.27,65a65.33,65.33,0,0,0-.5,10,64,64,0,0,0,.5,10,14.46,14.46,0,0,0,3.85,7.64A17.44,17.44,0,0,0,499,93.79a16.45,16.45,0,0,0,5.37-10.25Zm-27,5.9H448V78.69H465.5V71H448V60.6h20.51V52.89H439.39V97.15h29.15ZM436.1,52.89H404.34V60.6H415.9V97.15h8.64V60.6H436.1Zm-55.38,18.4-5.22-.74Q370,69.8,370,65.64a4.9,4.9,0,0,1,2.12-4.29A7.88,7.88,0,0,1,376.88,60q5.87,0,9.11,3.05l5.48-5.41q-5.34-5.16-14.29-5.16a16.85,16.85,0,0,0-10.82,3.36,12,12,0,0,0-4.6,10.06q0,10.74,11.75,12.36l5.34.76q5.29.75,5.29,5.29,0,5.46-7.83,5.46-7,0-10.69-3.72L360,91.68q5.85,5.83,16.16,5.84a18.78,18.78,0,0,0,11.31-3.23,11.74,11.74,0,0,0,5.1-10.19q0-11.13-11.87-12.81m-23.37-18.4h-8.64V97.15h8.64ZM333.29,86.83a7.13,7.13,0,0,1-6,3q-6.78,0-7.59-8.32-.18-2.17-.12-6.47V68.56q1-8.33,7.64-8.33,6.9,0,7.65,8.33c.08.91.12,2,.12,3.23V75q0,9.57-1.68,11.81M343.05,65a14.45,14.45,0,0,0-3.85-7.65,16.22,16.22,0,0,0-11.93-4.85,16.43,16.43,0,0,0-12,4.85A13.91,13.91,0,0,0,311.42,65a64,64,0,0,0-.5,10,62.77,62.77,0,0,0,.5,10,14.1,14.1,0,0,0,3.85,7.64,17.18,17.18,0,0,0,23.93,0A13.63,13.63,0,0,0,343.05,85a63.64,63.64,0,0,0,.56-10,58.67,58.67,0,0,0-.56-10M305.82,52.89h-8.64V80l-17.52-27.1H272V97.15h8.64V70l17.55,27.13h7.68Zm-40.46,0h-8.64V97.15h8.64ZM253.43,89.44H233.35V52.89h-8.64V97.15h28.72Zm-32,0H201.34V52.89H192.7V97.15h28.72ZM186.11,52.89h-8.64V97.15h8.64Z" transform="translate(-9.29 -10.02)"/><path d="M74.33,140a65,65,0,1,1,0-130h.1a65,65,0,0,1,45.9,111A64.54,64.54,0,0,1,74.33,140Z" transform="translate(-9.29 -10.02)" fill="#c00"/><path d="M74.4,125.5a50.61,50.61,0,1,1,0-101.22,50.61,50.61,0,0,1,0,101.22Z" transform="translate(-9.29 -10.02)" fill="#fff"/><path d="M104.75,44.56V75a42.46,42.46,0,0,1-30.33,40.52l-.06,0h-.07c-.3,0-30.44-3.92-30.39-40.53V44.56Z" transform="translate(-9.29 -10.02)" fill="#c00"/><line x1="65.16" y1="75.88" x2="65.16" y2="68.18" fill="none" stroke="#fff" stroke-miterlimit="3.86" stroke-width="0.5"/><polyline points="66.04 75.88 69.58 69.45 69.58 74.14" fill="none" stroke="#fff" stroke-miterlimit="5.76" stroke-width="0.5"/><polyline points="66.84 76.14 74.74 70.19 74.74 76.95" fill="none" stroke="#fff" stroke-miterlimit="3.86" stroke-width="0.5"/><polyline points="63.43 76.21 55.46 70.19 55.46 76.95" fill="none" stroke="#fff" stroke-miterlimit="3.86" stroke-width="0.5"/><polyline points="64.3 75.88 60.75 69.45 60.75 74.2" fill="none" stroke="#fff" stroke-miterlimit="5.76" stroke-width="0.5"/><path d="M76,104.44c0,.42-.69.77-1.54.8s-1.49-.38-1.47-.8V86.64c0,.42.62.77,1.47.8s1.53-.38,1.54-.8v17.8Z" transform="translate(-9.29 -10.02)" fill="#fff"/><polygon points="62.69 94.42 62.69 76.55 52.52 72.33 52.52 89.2 62.69 94.42 62.69 94.42" fill="#fff"/><polygon points="67.72 94.42 67.72 76.55 77.89 72.33 77.89 89.2 67.72 94.42 67.72 94.42" fill="#fff"/><polygon points="41.4 59.41 41.4 57.87 59.08 57.87 59.08 59.41 41.4 59.41 41.4 59.41" fill="#fff"/><polygon points="44.89 60.48 55.46 60.48 52.38 63.63 47.96 63.63 44.89 60.48 44.89 60.48" fill="#fff"/><polygon points="47.96 63.63 52.38 63.63 52.38 65.17 47.96 65.17 47.96 63.63 47.96 63.63" fill="#fff"/><path d="M58.53,47.82A11.34,11.34,0,0,1,59.6,51c.69,3.73-2.14,5.43-2.07,9.57a9.59,9.59,0,0,0,2,6.16,17.71,17.71,0,0,1-.33-3.55c0-2.72,1.21-4.14,1.41-6.9a15.79,15.79,0,0,1,.33,6.5,14,14,0,0,1-1,3.68A11.2,11.2,0,0,0,63,59.26a12.66,12.66,0,0,0-4.49-11.44Z" transform="translate(-9.29 -10.02)" fill="#fff"/><path d="M61.74,49.89a11.53,11.53,0,0,1,2.41,5.76,14.69,14.69,0,0,1-1.33,8.29c2.81-2.76,4.32-7.27,2.54-10.57a9.19,9.19,0,0,0-3.62-3.48Z" transform="translate(-9.29 -10.02)" fill="#fff"/><path d="M58.33,50.16a5,5,0,0,1,.2,2.94c-.43,2.12-2.27,4.56-2.21,7.5a9.37,9.37,0,0,0,2.15,6.16,5.36,5.36,0,0,1-3.22-3.55,6.34,6.34,0,0,1,.13-4.69,4.77,4.77,0,0,0,1.28,7.77c-2.22-.47-4.09-2.05-4.29-4.08-.42-5.39,5.33-6.45,6-12.05Z" transform="translate(-9.29 -10.02)" fill="#fff"/><path d="M86.78,66c-.23.91-.86.87-1.47.27a9.73,9.73,0,0,0-5.89-2.41h-.21s1.27.44,1.68.6l1.07.4a5.1,5.1,0,0,0-1.41.41c-.1.09,0,.09-.06.2a4.58,4.58,0,0,1,2.67.13,8,8,0,0,1,2.21,3.08,30.44,30.44,0,0,1,.8,3.88L86.78,66Z" transform="translate(-9.29 -10.02)" fill="#fff"/><path d="M85.91,75.06c-.4-3.52.58-13.53,3.34-21.15.09-.18.42-.28.54-.47-1.63,5.56-2.41,19,.74,21.68-.52,0-4.61-.1-4.62-.06Z" transform="translate(-9.29 -10.02)" fill="#fff"/><path d="M79.68,64c-.26-.62-1-2.25-1.94-2.68s-2-.16-2.94-.86c0,1,.5,2.61,1.6,3.07a4.84,4.84,0,0,0,3.28.47Z" transform="translate(-9.29 -10.02)" fill="#fff"/><path d="M82.16,64.55c.7-.72,1.48.14,2.54-.94.59-.57.57-1.71,1.21-2.34a4.56,4.56,0,0,0-3,.53,2.5,2.5,0,0,0-.8,2.75Z" transform="translate(-9.29 -10.02)" fill="#fff"/><path d="M80.62,65.22c-2.38-.69-3.44.1-4,.53a4.92,4.92,0,0,0-1.74,3.08c.83-1.23,2.62-.9,3.69-.94a2.23,2.23,0,0,0,1.87-1.34,6.93,6.93,0,0,0,.2-1.33Z" transform="translate(-9.29 -10.02)" fill="#fff"/><path d="M82,65.82c1.06-.29,1.81.89,1.67,1.81-.13,1.24-1.51,1.93-1,3.48a3.55,3.55,0,0,1-2.14-2.61A2.36,2.36,0,0,1,82,65.82Z" transform="translate(-9.29 -10.02)" fill="#fff"/><path d="M87.78,57.59a2.67,2.67,0,0,0-.47-2.75c-.35-.52-1.8-1-2.34-1.94.11,1-.13,2.82.74,4,.43.56,1.9,1.23,2.07.67Z" transform="translate(-9.29 -10.02)" fill="#fff"/><path d="M88.38,55.11c-.26-1.14-1.4-1.3-2.21-2.41s.62-2,0-3.21c.44.22.68.26,1.14.53s2,1.3,1.74,2.75a4.34,4.34,0,0,1-.67,2.34Z" transform="translate(-9.29 -10.02)" fill="#fff"/><path d="M89.05,55.91c.82-.78,1.88-.12,3.15-.47s.91-1.79,2.07-2.27c-.43-.05-.67-.18-1.14-.27s-2.08-.11-2.81,1a16.84,16.84,0,0,1-1.27,2Z" transform="translate(-9.29 -10.02)" fill="#fff"/><path d="M82,58.06c-.39-.11-.57-1-1.28-1.61-1-.89-2.78-.77-3.88-.6.39.06,1.25,1.69,1.61,2a2.34,2.34,0,0,0,2.34.6,8.11,8.11,0,0,0,1.21-.4Z" transform="translate(-9.29 -10.02)" fill="#fff"/><path d="M81.35,58.79a2.14,2.14,0,0,0-1.13,1.34,3.26,3.26,0,0,0,.6,3c.25-1.36,1.59-1.83,1.94-2.27a2,2,0,0,0,.07-2.15c1.34.16,3.13,1.47,5.36,4.69l-.34-2.61c-.1-.08-2.5-1.39-3.15-1.81-.39-.35.24-1.27.27-1.8.19-2.36-2.4-2.85-2.94-3.55a16.39,16.39,0,0,1,0,2.81c.14,1.21,2.3,1.62,2.54,2.54a5.21,5.21,0,0,0-1.94-.47c-.46.16-.81,0-1.28.27Z" transform="translate(-9.29 -10.02)" fill="#fff"/><path d="M88.25,66.55c.11,1,1,1,1.67.48a10.11,10.11,0,0,1,6.16-1.68l-.13.14s-1.17.12-1.61.2a9.78,9.78,0,0,0-1,.33,5.65,5.65,0,0,1,1.6.67c.07.08-.2,0-.13.13a4.56,4.56,0,0,0-2.68-.2,10.14,10.14,0,0,0-2.88,3.15c-.58,1.16-.23,1.4-.53,2.41l-.47-5.63Z" transform="translate(-9.29 -10.02)" fill="#fff"/><path d="M95.81,65.42c.36-.61,1.28-2.13,2.21-2.41s2.08.07,3.15-.54c-.21,1-.89,2.55-2.08,2.88a4.89,4.89,0,0,1-3.28.07Z" transform="translate(-9.29 -10.02)" fill="#fff"/><path d="M92.94,65.62c-.77-.93-1.72,0-2.62-1.41-.43-.68-.17-1.62-.73-2.34a4.67,4.67,0,0,1,2.88.94,2.53,2.53,0,0,1,.47,2.81Z" transform="translate(-9.29 -10.02)" fill="#fff"/><path d="M94.68,66.42a4.23,4.23,0,0,1,3.95,1.07A5.22,5.22,0,0,1,100,70.77c-.66-1.27-2.47-1.17-3.54-1.34a2.18,2.18,0,0,1-1.68-1.6,6.77,6.77,0,0,1-.06-1.41Z" transform="translate(-9.29 -10.02)" fill="#fff"/><path d="M93.2,67c-1-.42-1.88.66-1.87,1.54,0,1.31,1.29,2.16.6,3.61a3.43,3.43,0,0,0,2.41-2.27A2.32,2.32,0,0,0,93.2,67Z" transform="translate(-9.29 -10.02)" fill="#fff"/><path d="M93.94,59.06c.39-.07.68-.91,1.47-1.47,1-.74,2.84-.4,3.88-.14-.35,0-1.41,1.58-1.8,1.88a2.38,2.38,0,0,1-2.41.26,9.85,9.85,0,0,1-1.14-.53Z" transform="translate(-9.29 -10.02)" fill="#fff"/><path d="M94.54,59.8a2.26,2.26,0,0,1,.94,1.53,3.26,3.26,0,0,1-.94,2.88c-.1-1.35-1.39-2-1.67-2.47a2.25,2.25,0,0,1,.26-2.21c-1.28,0-3.34,1.15-5.95,4.08l.6-2.61c.11,0,2.7-1,3.42-1.34.42-.31-.13-1.22-.14-1.74.16-2.26,2.76-2.13,3.35-2.68-.28,1,0,1.34-.4,2.62s-2.55.92-2.68,1.8a3.68,3.68,0,0,1,1.94-.27c.45.21.82.17,1.27.41Z" transform="translate(-9.29 -10.02)" fill="#fff"/><path d="M89.92,52.57a2.84,2.84,0,0,1,.54-2.88c.35-.55,1.88-1,2.41-2-.09,1,.16,3-.74,4.22-.46.58-2,1.3-2.21.67Z" transform="translate(-9.29 -10.02)" fill="#fff"/><path d="M46.14,121.73l-.85-.52.13-.21,2.8,1.69-.12.21-.86-.51-3.19,5.32.85.51-.13.21L42,126.75l.12-.22L43,127Z" transform="translate(-9.29 -10.02)" fill="#fff"/><path d="M42.49,119.15l-.16.2-.77-.63-3.91,4.82.78.63-.16.19-2.58-2.08.15-.2.82.65,3.9-4.81-1-.84c-1-.8-1.88-.42-2.64.45l-.24-.19,1.5-1.7Z" transform="translate(-9.29 -10.02)" fill="#fff"/><path d="M35.56,113.3l-.2.17-.65-.76L30,116.78l.65.76-.18.16-2.18-2.51.18-.16.69.78,4.68-4.06-.86-1c-.84-1-1.78-.74-2.67,0l-.21-.24,1.77-1.41Z" transform="translate(-9.29 -10.02)" fill="#fff"/><path d="M28.33,104.48l-.54-.84.21-.13,1.78,2.74-.21.14-.54-.83-5.2,3.38.54.83-.21.14-1.79-2.75.21-.13.55.83Z" transform="translate(-9.29 -10.02)" fill="#fff"/><path d="M23.9,95.28l.12.27-4,6.56,5.45-2.54-.42-.89.23-.1,1,2.07-.23.11-.42-.89L20,102.49l.42.89-.23.11-1.09-2.33,2.72-4.55-3.75,1.75.41.87-.23.11-1-2.08.23-.1.42.91Z" transform="translate(-9.29 -10.02)" fill="#fff"/><path d="M18.73,86.73a4.39,4.39,0,0,1,1.12-.16,1.61,1.61,0,0,1,.7,3,4.29,4.29,0,0,1-1.08.36l-2.13.5a3.21,3.21,0,0,1-1,.07,1.61,1.61,0,0,1-.67-2.92,3.18,3.18,0,0,1,.94-.37Zm2.86,1c-.45-1.94-2.5-2.63-4.29-2.22a3.14,3.14,0,1,0,1.41,6.1C20.5,91.22,22,89.69,21.59,87.76Z" transform="translate(-9.29 -10.02)" fill="#fff"/><path d="M19.77,78.86l-.08-1h.25l.28,3.25-.25,0-.09-1-6.18.54.09,1-.25,0-.29-3.26.25,0,.09,1Z" transform="translate(-9.29 -10.02)" fill="#fff"/><path d="M20,73.79V74l-2-.11v-.29c1-.16,1.88-.69,1.93-1.75a1.44,1.44,0,0,0-1.32-1.57c-.94,0-1.16.78-1.46,1.52-.08.19-.16.39-.23.59a1.87,1.87,0,0,1-2,1.29,1.8,1.8,0,0,1-1.74-1.92,2.17,2.17,0,0,1,.58-1.44l-.38-.4v-.18l1.89.1,0,.32a1.79,1.79,0,0,0-1.83,1.64,1.21,1.21,0,0,0,1.07,1.31c.78,0,.89-.49,1.09-1.11.08-.24.16-.44.22-.61a5,5,0,0,1,.27-.65,2,2,0,0,1,2-1,2.06,2.06,0,0,1,2.08,2.24,2.32,2.32,0,0,1-.59,1.39Z" transform="translate(-9.29 -10.02)" fill="#fff"/><path d="M23,56.06l.32-.94.23.08-1.06,3.1-.24-.08.33-.94-5.87-2-.33.94-.23-.08L17.21,53l.24.08-.32.94Z" transform="translate(-9.29 -10.02)" fill="#fff"/><path d="M27.78,46.87l-.15.26L20,47.76l5.26,2.91.47-.86.22.12-1.11,2-.22-.12.48-.86-5.42-3-.48.86L19,48.68l1.24-2.25L25.48,46l-3.61-2-.47.85-.22-.12,1.11-2,.22.12-.49.88Z" transform="translate(-9.29 -10.02)" fill="#fff"/><path d="M30.47,42.7l-.1.13-1.56-1.26.19-.23a2,2,0,0,0,2.59-.27,1.45,1.45,0,0,0-.15-2c-.73-.59-1.39-.05-2.07.37-.18.11-.36.22-.53.34a1.87,1.87,0,0,1-2.39-.14A1.78,1.78,0,0,1,26.17,37a2.15,2.15,0,0,1,1.32-.83l-.08-.55.12-.14L29,36.7l-.2.25a1.79,1.79,0,0,0-2.45.25,1.2,1.2,0,0,0,.1,1.69c.61.48,1,.12,1.53-.26.21-.15.39-.26.54-.36a4.24,4.24,0,0,1,.59-.37,2,2,0,0,1,2.25.35,2,2,0,0,1,.38,3,2.29,2.29,0,0,1-1.3.78Z" transform="translate(-9.29 -10.02)" fill="#fff"/><path d="M36.61,35.73l-.17-.19.78-.7-4.15-4.61c-1.1.89-1,1.69-.24,2.76l-.24.22-1.36-1.67,4.28-3.85L37,29.21l-.23.21c-1-.83-1.78-1.05-2.78-.05L38.18,34l.77-.71.18.19Z" transform="translate(-9.29 -10.02)" fill="#fff"/><path d="M44.68,29l.82-.55.14.21-2.71,1.83-.15-.21.83-.56L40.14,24.6l-.82.55-.15-.2,2.72-1.83.14.2-.82.56Z" transform="translate(-9.29 -10.02)" fill="#fff"/><path d="M49.93,26.3l-.11-.23,1-.45L48.15,20c-1.31.54-1.41,1.34-1,2.58l-.3.13-.8-2,5.21-2.43,1,1.9-.28.13c-.71-1.09-1.39-1.52-2.64-.86l2.62,5.62,1-.44.11.22Z" transform="translate(-9.29 -10.02)" fill="#fff"/><path d="M62.8,14.92l.06.24-1,.23.95,4.11a2.23,2.23,0,0,1-.17,1.95,2.8,2.8,0,0,1-1.78.95A3,3,0,0,1,59,22.28c-.49-.22-.83-.81-1.08-1.9l-.89-3.88-1,.23L56,16.48l3.19-.73.06.24-1,.22.83,3.58c.31,1.36.44,2.58,2.2,2.17a1.58,1.58,0,0,0,1.22-2.17l-1-4.33-1,.22-.06-.25Z" transform="translate(-9.29 -10.02)" fill="#fff"/><path d="M69,20.79v-.25l1-.07-.44-6.19c-1.41,0-1.8.74-1.89,2l-.32,0,0-2.16,5.73-.4.26,2.14-.31,0c-.27-1.27-.75-1.92-2.15-1.75l.43,6.19,1-.08v.25Z" transform="translate(-9.29 -10.02)" fill="#fff"/><path d="M80.4,14.42l-.35,2.86c1,.12,1.48,0,1.67-1l.27,0-.34,2.78-.28,0c0-1.12-.27-1.4-1.35-1.5l-.37,3,1.41.17c1.3.16,1.67-.57,2-1.67l.29,0L83,21.24l-5.67-.69,0-.25,1,.12.76-6.16-1-.12,0-.25,5.51.68-.15,1.8-.29,0c-.09-1-.42-1.39-.91-1.59a3.32,3.32,0,0,0-.86-.19Z" transform="translate(-9.29 -10.02)" fill="#fff"/><path d="M99.94,24.24a5.15,5.15,0,0,1-.57,1,1.61,1.61,0,0,1-2.81-1.31,4.58,4.58,0,0,1,.38-1.07l.92-2a3.8,3.8,0,0,1,.56-.85,1.63,1.63,0,0,1,2.73,1.27,3.41,3.41,0,0,1-.29,1Zm-2.58,1.61c1.81.85,3.61-.34,4.38-2a3.39,3.39,0,0,0-1.42-4.34,3.4,3.4,0,0,0-4.24,1.7C95.3,22.87,95.56,25,97.36,25.85Z" transform="translate(-9.29 -10.02)" fill="#fff"/><path d="M108,24.23l-.82-.57.14-.2,4.57,3.19-1.13,1.72-.22-.16a2,2,0,0,0,.18-1.91,2.9,2.9,0,0,0-.78-.7L109,25l-1.66,2.36c.79.55,1.3.72,2-.13l.23.16-1.61,2.3-.23-.17c.56-1,.42-1.36-.49-2l-1.76,2.52.81.57-.14.21L103.45,29l.14-.21.82.57Z" transform="translate(-9.29 -10.02)" fill="#fff"/><path d="M117.07,41.19l.2-.15.62.86,5-3.65c-.78-1.19-1.58-1.14-2.73-.53l-.19-.26,1.8-1.17L125.18,41l-1.67,1.35-.19-.25c.94-.91,1.23-1.66.34-2.76l-5,3.64.62.86-.21.15Z" transform="translate(-9.29 -10.02)" fill="#fff"/><path d="M128.6,47.35,126,48.61c.43.87.78,1.26,1.78.84l.12.25-2.52,1.23-.12-.26c1-.57,1-1,.52-2L123,50.07l.62,1.28c.57,1.17,1.39,1.09,2.5.78l.13.26-2,.87-2.5-5.14L122,48l.45.9L128,46.19l-.44-.9.23-.11,2.43,5-1.6.85-.12-.25c.77-.62.94-1.12.84-1.65a3.17,3.17,0,0,0-.31-.81Z" transform="translate(-9.29 -10.02)" fill="#fff"/><path d="M129.23,61.77l-2,.57,0-.21.34-.53a2.66,2.66,0,0,1-1-1.49A3.42,3.42,0,0,1,129,56.17a3.76,3.76,0,0,1,3.58.86,2.77,2.77,0,0,1,.7,1.22,2.43,2.43,0,0,1-.08,1.64l.52.28.06.21-1.86.53-.08-.28A1.91,1.91,0,0,0,133,58.31a1.3,1.3,0,0,0-1-1.08,5.18,5.18,0,0,0-2.71.39,7.13,7.13,0,0,0-1.88.71,1.48,1.48,0,0,0-.68,1.68c.29,1.2,1.28,1.51,2.4,1.49Z" transform="translate(-9.29 -10.02)" fill="#fff"/><path d="M131.67,68.23l-3,.26.08,1-.25,0-.28-3.26.25,0,.08,1,6.18-.54-.08-1,.25,0,.28,3.26-.25,0-.08-1-2.87.25.23,2.66,2.87-.25-.09-1,.25,0,.29,3.26-.25,0-.09-1-6.18.54.08,1-.25,0-.28-3.26.25,0,.09,1,3.06-.27Z" transform="translate(-9.29 -10.02)" fill="#fff"/><path d="M128.15,82.75l0-.3,6.73-3.69-6-.52-.09,1-.25,0,.2-2.28.25,0-.08,1,6.18.54.09-1,.24,0-.22,2.57-4.63,2.57,4.12.36.08-1,.26,0-.2,2.28-.25,0,.08-1Z" transform="translate(-9.29 -10.02)" fill="#fff"/><path d="M128.39,92.63a4.41,4.41,0,0,1-1-.41,1.41,1.41,0,0,1-.7-1.8,1.43,1.43,0,0,1,1.55-1.17,4.35,4.35,0,0,1,1.11.21l2.1.6a3.46,3.46,0,0,1,.93.42,1.62,1.62,0,0,1-.83,2.89,3.57,3.57,0,0,1-1-.13Zm-2-2.29c-.55,1.92.9,3.51,2.67,4a3.13,3.13,0,1,0,1.72-6C129,87.84,126.94,88.44,126.4,90.34Z" transform="translate(-9.29 -10.02)" fill="#fff"/><path d="M124.22,96.75l.23.11-.43.89,5.57,2.72.44-.89.22.11-1.46,3-.22-.1.46-.94-5.58-2.72-.58,1.18c-.55,1.15,0,1.93,1,2.47l-.13.28-2-1.08Z" transform="translate(-9.29 -10.02)" fill="#fff"/><path d="M118.79,110.29a4.36,4.36,0,0,1-.84-.75,1.6,1.6,0,0,1,1.86-2.47,4.21,4.21,0,0,1,1,.59l1.75,1.31a3.25,3.25,0,0,1,.71.73,1.35,1.35,0,0,1-.09,1.81,1.38,1.38,0,0,1-1.71.58,2.92,2.92,0,0,1-.9-.48Zm-1.05-2.85c-1.2,1.59-.41,3.61,1.06,4.71a3.13,3.13,0,1,0,3.76-5C121.09,106.05,118.94,105.86,117.74,107.44Z" transform="translate(-9.29 -10.02)" fill="#fff"/><path d="M112.82,120a2.05,2.05,0,0,0,2.61,0c1.37-1.27.13-2.47-.88-3.55s-2.12-2.55-3.46-1.3c-1,1-.19,1.62.52,2.37l.74-.69.17.19-2.29,2.14-.18-.18.52-.49a2.33,2.33,0,0,1,.27-3.44,2.9,2.9,0,0,1,2.68-.81,3.44,3.44,0,0,1,2.06,1.16,3.78,3.78,0,0,1,1,2.42,2.87,2.87,0,0,1-2.47,3v.58l-.16.15-1.32-1.42Z" transform="translate(-9.29 -10.02)" fill="#fff"/><path d="M104.4,120.25l.13.21-.89.56,1.47,2.37,3.6,1.78.62-.39.14.21-2.78,1.73-.12-.21.87-.55-3-1.54.16,3.31.88-.56.14.21-1.84,1.15-.13-.21.68-.43-.21-3.63-1.59-2.56-.94.59-.13-.21Z" transform="translate(-9.29 -10.02)" fill="#fff"/><path d="M61.25,128c.11-.46,0-.46-.64-.62l-.61-.15.07-.27.63.15c.63.16,1.28.24,1.92.36L61,134.14l1.25.31-.06.27-3.72-.93.07-.27,1.29.33Z" transform="translate(-9.29 -10.02)" fill="#fff"/><path d="M71.11,130.47c-.06.68-.19,1.46-1,1.39-.58-.05-.88-.33-.77-1.55.06-.71.14-1.59,1-1.51C71,128.86,71.24,129.07,71.11,130.47Zm-.69,1.6c.91-.16,1.9-.51,2-1.56.11-1.24-1-1.85-2.06-1.94s-2.24.36-2.34,1.55.81,1.59,1.62,1.88v0c-.9.14-2,.6-2.16,1.76s.79,2,2.24,2.12c1.07.1,2.45-.29,2.57-1.7a2.12,2.12,0,0,0-1.86-2.11Zm.56,2c-.12,1.28-.45,1.69-1.25,1.62-1-.09-1-1-.94-1.81.06-.68.26-1.73,1.24-1.65S71.06,133.11,71,134Z" transform="translate(-9.29 -10.02)" fill="#fff"/><path d="M80.17,130.89c0,.4,0,.78,0,1.19s-.74.84-1.07.86c-1,.09-1.07-1.17-1.13-1.86-.18-2.1.32-2.26.8-2.31S80,128.8,80.17,130.89Zm-2.59,5.17a4.54,4.54,0,0,0,4-4.72c-.13-1.45-1.09-2.92-2.69-2.78a2.43,2.43,0,0,0-2.18,2.56,2.17,2.17,0,0,0,2.3,2.12,2,2,0,0,0,1.28-.66,3.25,3.25,0,0,1-2.68,3.23Z" transform="translate(-9.29 -10.02)" fill="#fff"/><path d="M86.86,129.82c-.44-1.76,0-2.22.5-2.33s1.1.06,1.55,1.82l.58,2.36c.19.75.62,2.18-.48,2.45s-1.37-1.18-1.56-1.94Zm-1,1.53c.61,2.44,2.24,3.29,3.25,3s2.06-1.76,1.44-4.21c-.42-1.7-1.93-3.25-3.22-2.93S85.41,129.65,85.83,131.35Z" transform="translate(-9.29 -10.02)" fill="#fff"/></svg>