<svg width="1289" height="492" viewBox="0 0 1289 492" fill="none" xmlns="http://www.w3.org/2000/svg">
<rect x="436" y="5" width="390" height="390" fill="#F1F1F1" stroke="black" stroke-width="10" stroke-dasharray="25 25"/>
<path d="M639.174 232.889H616.762C616.82 227.615 617.23 223.074 617.992 219.266C618.812 215.398 620.189 211.912 622.123 208.807C624.115 205.701 626.752 202.625 630.033 199.578C632.787 197.117 635.189 194.773 637.24 192.547C639.291 190.32 640.902 188.035 642.074 185.691C643.246 183.289 643.832 180.623 643.832 177.693C643.832 174.295 643.305 171.482 642.25 169.256C641.254 166.971 639.73 165.242 637.68 164.07C635.688 162.898 633.168 162.312 630.121 162.312C627.602 162.312 625.258 162.869 623.09 163.982C620.922 165.037 619.135 166.678 617.729 168.904C616.381 171.131 615.678 174.061 615.619 177.693H590.131C590.307 169.666 592.152 163.045 595.668 157.83C599.242 152.557 604.018 148.66 609.994 146.141C615.971 143.562 622.68 142.273 630.121 142.273C638.324 142.273 645.355 143.621 651.215 146.316C657.074 148.953 661.557 152.85 664.662 158.006C667.768 163.104 669.32 169.314 669.32 176.639C669.32 181.736 668.324 186.277 666.332 190.262C664.34 194.188 661.732 197.85 658.51 201.248C655.287 204.646 651.742 208.162 647.875 211.795C644.535 214.783 642.25 217.918 641.02 221.199C639.848 224.48 639.232 228.377 639.174 232.889ZM614.125 260.047C614.125 256.297 615.414 253.191 617.992 250.73C620.57 248.211 624.027 246.951 628.363 246.951C632.641 246.951 636.068 248.211 638.646 250.73C641.283 253.191 642.602 256.297 642.602 260.047C642.602 263.68 641.283 266.756 638.646 269.275C636.068 271.795 632.641 273.055 628.363 273.055C624.027 273.055 620.57 271.795 617.992 269.275C615.414 266.756 614.125 263.68 614.125 260.047Z" fill="black"/>
<path d="M97 192.5C92.8579 192.5 89.5 195.858 89.5 200C89.5 204.142 92.8579 207.5 97 207.5V192.5ZM386.303 205.303C389.232 202.374 389.232 197.626 386.303 194.697L338.574 146.967C335.645 144.038 330.896 144.038 327.967 146.967C325.038 149.896 325.038 154.645 327.967 157.574L370.393 200L327.967 242.426C325.038 245.355 325.038 250.104 327.967 253.033C330.896 255.962 335.645 255.962 338.574 253.033L386.303 205.303ZM97 207.5H381V192.5H97V207.5Z" fill="black"/>
<path d="M881 192.5H873.5V207.5H881V192.5ZM1286.3 205.303C1289.23 202.374 1289.23 197.626 1286.3 194.697L1238.57 146.967C1235.64 144.038 1230.9 144.038 1227.97 146.967C1225.04 149.896 1225.04 154.645 1227.97 157.574L1270.39 200L1227.97 242.426C1225.04 245.355 1225.04 250.104 1227.97 253.033C1230.9 255.962 1235.64 255.962 1238.57 253.033L1286.3 205.303ZM881 207.5H1281V192.5H881V207.5Z" fill="black"/>
<path d="M925.594 286.688V294H901.375V286.688H925.594ZM904.438 248.5V294H895.062V248.5H904.438ZM922.438 267.031V274.156H901.375V267.031H922.438ZM925.562 248.5V255.844H901.375V248.5H925.562ZM939.5 267.188V294H930.469V260.188H938.938L939.5 267.188ZM938.25 275.906H935.75C935.75 273.552 936.031 271.385 936.594 269.406C937.177 267.406 938.021 265.677 939.125 264.219C940.25 262.74 941.635 261.594 943.281 260.781C944.927 259.969 946.833 259.562 949 259.562C950.5 259.562 951.875 259.792 953.125 260.25C954.375 260.688 955.448 261.385 956.344 262.344C957.26 263.281 957.969 264.51 958.469 266.031C958.969 267.531 959.219 269.333 959.219 271.438V294H950.219V272.438C950.219 270.896 950.01 269.708 949.594 268.875C949.177 268.042 948.583 267.458 947.812 267.125C947.062 266.792 946.156 266.625 945.094 266.625C943.927 266.625 942.906 266.865 942.031 267.344C941.177 267.823 940.469 268.49 939.906 269.344C939.344 270.177 938.927 271.156 938.656 272.281C938.385 273.406 938.25 274.615 938.25 275.906ZM958.375 274.875L955.156 275.281C955.156 273.073 955.427 271.021 955.969 269.125C956.531 267.229 957.354 265.562 958.438 264.125C959.542 262.688 960.906 261.573 962.531 260.781C964.156 259.969 966.031 259.562 968.156 259.562C969.781 259.562 971.26 259.802 972.594 260.281C973.927 260.74 975.062 261.479 976 262.5C976.958 263.5 977.688 264.812 978.188 266.438C978.708 268.062 978.969 270.052 978.969 272.406V294H969.938V272.406C969.938 270.844 969.729 269.656 969.312 268.844C968.917 268.01 968.333 267.438 967.562 267.125C966.812 266.792 965.917 266.625 964.875 266.625C963.792 266.625 962.844 266.844 962.031 267.281C961.219 267.698 960.542 268.281 960 269.031C959.458 269.781 959.052 270.656 958.781 271.656C958.51 272.635 958.375 273.708 958.375 274.875ZM995.438 260.188V294H986.406V260.188H995.438ZM985.844 251.375C985.844 250.062 986.302 248.979 987.219 248.125C988.135 247.271 989.365 246.844 990.906 246.844C992.427 246.844 993.646 247.271 994.562 248.125C995.5 248.979 995.969 250.062 995.969 251.375C995.969 252.688 995.5 253.771 994.562 254.625C993.646 255.479 992.427 255.906 990.906 255.906C989.365 255.906 988.135 255.479 987.219 254.625C986.302 253.771 985.844 252.688 985.844 251.375ZM1021.16 284.656C1021.16 284.01 1020.97 283.427 1020.59 282.906C1020.22 282.385 1019.52 281.906 1018.5 281.469C1017.5 281.01 1016.05 280.594 1014.16 280.219C1012.45 279.844 1010.85 279.375 1009.38 278.812C1007.92 278.229 1006.65 277.531 1005.56 276.719C1004.5 275.906 1003.67 274.948 1003.06 273.844C1002.46 272.719 1002.16 271.438 1002.16 270C1002.16 268.583 1002.46 267.25 1003.06 266C1003.69 264.75 1004.57 263.646 1005.72 262.688C1006.89 261.708 1008.3 260.948 1009.97 260.406C1011.66 259.844 1013.55 259.562 1015.66 259.562C1018.59 259.562 1021.11 260.031 1023.22 260.969C1025.34 261.906 1026.97 263.198 1028.09 264.844C1029.24 266.469 1029.81 268.323 1029.81 270.406H1020.81C1020.81 269.531 1020.62 268.75 1020.25 268.062C1019.9 267.354 1019.33 266.802 1018.56 266.406C1017.81 265.99 1016.83 265.781 1015.62 265.781C1014.62 265.781 1013.76 265.958 1013.03 266.312C1012.3 266.646 1011.74 267.104 1011.34 267.688C1010.97 268.25 1010.78 268.875 1010.78 269.562C1010.78 270.083 1010.89 270.552 1011.09 270.969C1011.32 271.365 1011.69 271.729 1012.19 272.062C1012.69 272.396 1013.33 272.708 1014.12 273C1014.94 273.271 1015.94 273.521 1017.12 273.75C1019.56 274.25 1021.74 274.906 1023.66 275.719C1025.57 276.51 1027.09 277.594 1028.22 278.969C1029.34 280.323 1029.91 282.104 1029.91 284.312C1029.91 285.812 1029.57 287.188 1028.91 288.438C1028.24 289.688 1027.28 290.781 1026.03 291.719C1024.78 292.635 1023.28 293.354 1021.53 293.875C1019.8 294.375 1017.85 294.625 1015.69 294.625C1012.54 294.625 1009.88 294.062 1007.69 292.938C1005.52 291.812 1003.88 290.385 1002.75 288.656C1001.65 286.906 1001.09 285.115 1001.09 283.281H1009.62C1009.67 284.51 1009.98 285.5 1010.56 286.25C1011.17 287 1011.93 287.542 1012.84 287.875C1013.78 288.208 1014.79 288.375 1015.88 288.375C1017.04 288.375 1018.01 288.219 1018.78 287.906C1019.55 287.573 1020.14 287.135 1020.53 286.594C1020.95 286.031 1021.16 285.385 1021.16 284.656ZM1054.03 284.656C1054.03 284.01 1053.84 283.427 1053.47 282.906C1053.09 282.385 1052.4 281.906 1051.38 281.469C1050.38 281.01 1048.93 280.594 1047.03 280.219C1045.32 279.844 1043.73 279.375 1042.25 278.812C1040.79 278.229 1039.52 277.531 1038.44 276.719C1037.38 275.906 1036.54 274.948 1035.94 273.844C1035.33 272.719 1035.03 271.438 1035.03 270C1035.03 268.583 1035.33 267.25 1035.94 266C1036.56 264.75 1037.45 263.646 1038.59 262.688C1039.76 261.708 1041.18 260.948 1042.84 260.406C1044.53 259.844 1046.43 259.562 1048.53 259.562C1051.47 259.562 1053.99 260.031 1056.09 260.969C1058.22 261.906 1059.84 263.198 1060.97 264.844C1062.11 266.469 1062.69 268.323 1062.69 270.406H1053.69C1053.69 269.531 1053.5 268.75 1053.12 268.062C1052.77 267.354 1052.21 266.802 1051.44 266.406C1050.69 265.99 1049.71 265.781 1048.5 265.781C1047.5 265.781 1046.64 265.958 1045.91 266.312C1045.18 266.646 1044.61 267.104 1044.22 267.688C1043.84 268.25 1043.66 268.875 1043.66 269.562C1043.66 270.083 1043.76 270.552 1043.97 270.969C1044.2 271.365 1044.56 271.729 1045.06 272.062C1045.56 272.396 1046.21 272.708 1047 273C1047.81 273.271 1048.81 273.521 1050 273.75C1052.44 274.25 1054.61 274.906 1056.53 275.719C1058.45 276.51 1059.97 277.594 1061.09 278.969C1062.22 280.323 1062.78 282.104 1062.78 284.312C1062.78 285.812 1062.45 287.188 1061.78 288.438C1061.11 289.688 1060.16 290.781 1058.91 291.719C1057.66 292.635 1056.16 293.354 1054.41 293.875C1052.68 294.375 1050.73 294.625 1048.56 294.625C1045.42 294.625 1042.75 294.062 1040.56 292.938C1038.4 291.812 1036.75 290.385 1035.62 288.656C1034.52 286.906 1033.97 285.115 1033.97 283.281H1042.5C1042.54 284.51 1042.85 285.5 1043.44 286.25C1044.04 287 1044.8 287.542 1045.72 287.875C1046.66 288.208 1047.67 288.375 1048.75 288.375C1049.92 288.375 1050.89 288.219 1051.66 287.906C1052.43 287.573 1053.01 287.135 1053.41 286.594C1053.82 286.031 1054.03 285.385 1054.03 284.656ZM1078.12 260.188V294H1069.09V260.188H1078.12ZM1068.53 251.375C1068.53 250.062 1068.99 248.979 1069.91 248.125C1070.82 247.271 1072.05 246.844 1073.59 246.844C1075.11 246.844 1076.33 247.271 1077.25 248.125C1078.19 248.979 1078.66 250.062 1078.66 251.375C1078.66 252.688 1078.19 253.771 1077.25 254.625C1076.33 255.479 1075.11 255.906 1073.59 255.906C1072.05 255.906 1070.82 255.479 1069.91 254.625C1068.99 253.771 1068.53 252.688 1068.53 251.375ZM1084.12 277.438V276.781C1084.12 274.302 1084.48 272.021 1085.19 269.938C1085.9 267.833 1086.93 266.01 1088.28 264.469C1089.64 262.927 1091.3 261.729 1093.28 260.875C1095.26 260 1097.53 259.562 1100.09 259.562C1102.66 259.562 1104.94 260 1106.94 260.875C1108.94 261.729 1110.61 262.927 1111.97 264.469C1113.34 266.01 1114.39 267.833 1115.09 269.938C1115.8 272.021 1116.16 274.302 1116.16 276.781V277.438C1116.16 279.896 1115.8 282.177 1115.09 284.281C1114.39 286.365 1113.34 288.188 1111.97 289.75C1110.61 291.292 1108.95 292.49 1106.97 293.344C1104.99 294.198 1102.72 294.625 1100.16 294.625C1097.59 294.625 1095.31 294.198 1093.31 293.344C1091.33 292.49 1089.66 291.292 1088.28 289.75C1086.93 288.188 1085.9 286.365 1085.19 284.281C1084.48 282.177 1084.12 279.896 1084.12 277.438ZM1093.12 276.781V277.438C1093.12 278.854 1093.25 280.177 1093.5 281.406C1093.75 282.635 1094.15 283.719 1094.69 284.656C1095.25 285.573 1095.98 286.292 1096.88 286.812C1097.77 287.333 1098.86 287.594 1100.16 287.594C1101.41 287.594 1102.48 287.333 1103.38 286.812C1104.27 286.292 1104.99 285.573 1105.53 284.656C1106.07 283.719 1106.47 282.635 1106.72 281.406C1106.99 280.177 1107.12 278.854 1107.12 277.438V276.781C1107.12 275.406 1106.99 274.115 1106.72 272.906C1106.47 271.677 1106.06 270.594 1105.5 269.656C1104.96 268.698 1104.24 267.948 1103.34 267.406C1102.45 266.865 1101.36 266.594 1100.09 266.594C1098.82 266.594 1097.74 266.865 1096.84 267.406C1095.97 267.948 1095.25 268.698 1094.69 269.656C1094.15 270.594 1093.75 271.677 1093.5 272.906C1093.25 274.115 1093.12 275.406 1093.12 276.781ZM1130.5 267.406V294H1121.5V260.188H1129.94L1130.5 267.406ZM1129.19 275.906H1126.75C1126.75 273.406 1127.07 271.156 1127.72 269.156C1128.36 267.135 1129.27 265.417 1130.44 264C1131.6 262.562 1132.99 261.469 1134.59 260.719C1136.22 259.948 1138.03 259.562 1140.03 259.562C1141.61 259.562 1143.06 259.792 1144.38 260.25C1145.69 260.708 1146.81 261.438 1147.75 262.438C1148.71 263.438 1149.44 264.76 1149.94 266.406C1150.46 268.052 1150.72 270.062 1150.72 272.438V294H1141.66V272.406C1141.66 270.906 1141.45 269.74 1141.03 268.906C1140.61 268.073 1140 267.49 1139.19 267.156C1138.4 266.802 1137.42 266.625 1136.25 266.625C1135.04 266.625 1133.99 266.865 1133.09 267.344C1132.22 267.823 1131.49 268.49 1130.91 269.344C1130.34 270.177 1129.92 271.156 1129.62 272.281C1129.33 273.406 1129.19 274.615 1129.19 275.906ZM1175.84 284.656C1175.84 284.01 1175.66 283.427 1175.28 282.906C1174.91 282.385 1174.21 281.906 1173.19 281.469C1172.19 281.01 1170.74 280.594 1168.84 280.219C1167.14 279.844 1165.54 279.375 1164.06 278.812C1162.6 278.229 1161.33 277.531 1160.25 276.719C1159.19 275.906 1158.35 274.948 1157.75 273.844C1157.15 272.719 1156.84 271.438 1156.84 270C1156.84 268.583 1157.15 267.25 1157.75 266C1158.38 264.75 1159.26 263.646 1160.41 262.688C1161.57 261.708 1162.99 260.948 1164.66 260.406C1166.34 259.844 1168.24 259.562 1170.34 259.562C1173.28 259.562 1175.8 260.031 1177.91 260.969C1180.03 261.906 1181.66 263.198 1182.78 264.844C1183.93 266.469 1184.5 268.323 1184.5 270.406H1175.5C1175.5 269.531 1175.31 268.75 1174.94 268.062C1174.58 267.354 1174.02 266.802 1173.25 266.406C1172.5 265.99 1171.52 265.781 1170.31 265.781C1169.31 265.781 1168.45 265.958 1167.72 266.312C1166.99 266.646 1166.43 267.104 1166.03 267.688C1165.66 268.25 1165.47 268.875 1165.47 269.562C1165.47 270.083 1165.57 270.552 1165.78 270.969C1166.01 271.365 1166.38 271.729 1166.88 272.062C1167.38 272.396 1168.02 272.708 1168.81 273C1169.62 273.271 1170.62 273.521 1171.81 273.75C1174.25 274.25 1176.43 274.906 1178.34 275.719C1180.26 276.51 1181.78 277.594 1182.91 278.969C1184.03 280.323 1184.59 282.104 1184.59 284.312C1184.59 285.812 1184.26 287.188 1183.59 288.438C1182.93 289.688 1181.97 290.781 1180.72 291.719C1179.47 292.635 1177.97 293.354 1176.22 293.875C1174.49 294.375 1172.54 294.625 1170.38 294.625C1167.23 294.625 1164.56 294.062 1162.38 292.938C1160.21 291.812 1158.56 290.385 1157.44 288.656C1156.33 286.906 1155.78 285.115 1155.78 283.281H1164.31C1164.35 284.51 1164.67 285.5 1165.25 286.25C1165.85 287 1166.61 287.542 1167.53 287.875C1168.47 288.208 1169.48 288.375 1170.56 288.375C1171.73 288.375 1172.7 288.219 1173.47 287.906C1174.24 287.573 1174.82 287.135 1175.22 286.594C1175.64 286.031 1175.84 285.385 1175.84 284.656Z" fill="black"/>
<path d="M892.953 330.094V329.75C892.953 327.552 893.182 325.557 893.641 323.766C894.109 321.974 894.724 320.401 895.484 319.047C896.255 317.682 897.094 316.552 898 315.656C898.906 314.76 899.807 314.115 900.703 313.719L901.562 316.094C900.969 316.531 900.385 317.135 899.812 317.906C899.24 318.667 898.719 319.604 898.25 320.719C897.792 321.823 897.422 323.125 897.141 324.625C896.859 326.115 896.719 327.812 896.719 329.719V330.125C896.719 332.031 896.859 333.734 897.141 335.234C897.422 336.724 897.792 338.026 898.25 339.141C898.719 340.266 899.24 341.214 899.812 341.984C900.385 342.755 900.969 343.365 901.562 343.812L900.703 346.125C899.807 345.729 898.906 345.083 898 344.188C897.094 343.302 896.255 342.177 895.484 340.812C894.724 339.458 894.109 337.885 893.641 336.094C893.182 334.292 892.953 332.292 892.953 330.094ZM912.219 322.094V325.281H902.375V322.094H912.219ZM904.812 317.922H909.312V333.906C909.312 334.396 909.375 334.771 909.5 335.031C909.635 335.292 909.833 335.474 910.094 335.578C910.354 335.672 910.682 335.719 911.078 335.719C911.359 335.719 911.609 335.708 911.828 335.688C912.057 335.656 912.25 335.625 912.406 335.594L912.422 338.906C912.036 339.031 911.62 339.13 911.172 339.203C910.724 339.276 910.229 339.312 909.688 339.312C908.698 339.312 907.833 339.151 907.094 338.828C906.365 338.495 905.802 337.964 905.406 337.234C905.01 336.505 904.812 335.547 904.812 334.359V317.922ZM913.656 330.719V330.391C913.656 329.151 913.833 328.01 914.188 326.969C914.542 325.917 915.057 325.005 915.734 324.234C916.411 323.464 917.245 322.865 918.234 322.438C919.224 322 920.359 321.781 921.641 321.781C922.922 321.781 924.062 322 925.062 322.438C926.062 322.865 926.901 323.464 927.578 324.234C928.266 325.005 928.786 325.917 929.141 326.969C929.495 328.01 929.672 329.151 929.672 330.391V330.719C929.672 331.948 929.495 333.089 929.141 334.141C928.786 335.182 928.266 336.094 927.578 336.875C926.901 337.646 926.068 338.245 925.078 338.672C924.089 339.099 922.953 339.312 921.672 339.312C920.391 339.312 919.25 339.099 918.25 338.672C917.26 338.245 916.422 337.646 915.734 336.875C915.057 336.094 914.542 335.182 914.188 334.141C913.833 333.089 913.656 331.948 913.656 330.719ZM918.156 330.391V330.719C918.156 331.427 918.219 332.089 918.344 332.703C918.469 333.318 918.667 333.859 918.938 334.328C919.219 334.786 919.583 335.146 920.031 335.406C920.479 335.667 921.026 335.797 921.672 335.797C922.297 335.797 922.833 335.667 923.281 335.406C923.729 335.146 924.089 334.786 924.359 334.328C924.63 333.859 924.828 333.318 924.953 332.703C925.089 332.089 925.156 331.427 925.156 330.719V330.391C925.156 329.703 925.089 329.057 924.953 328.453C924.828 327.839 924.625 327.297 924.344 326.828C924.073 326.349 923.714 325.974 923.266 325.703C922.818 325.432 922.276 325.297 921.641 325.297C921.005 325.297 920.464 325.432 920.016 325.703C919.578 325.974 919.219 326.349 918.938 326.828C918.667 327.297 918.469 327.839 918.344 328.453C918.219 329.057 918.156 329.703 918.156 330.391ZM936.844 325.703V339H932.344V322.094H936.562L936.844 325.703ZM936.188 329.953H934.969C934.969 328.703 935.13 327.578 935.453 326.578C935.776 325.568 936.229 324.708 936.812 324C937.396 323.281 938.089 322.734 938.891 322.359C939.703 321.974 940.609 321.781 941.609 321.781C942.401 321.781 943.125 321.896 943.781 322.125C944.438 322.354 945 322.719 945.469 323.219C945.948 323.719 946.312 324.38 946.562 325.203C946.823 326.026 946.953 327.031 946.953 328.219V339H942.422V328.203C942.422 327.453 942.318 326.87 942.109 326.453C941.901 326.036 941.594 325.745 941.188 325.578C940.792 325.401 940.302 325.312 939.719 325.312C939.115 325.312 938.589 325.432 938.141 325.672C937.703 325.911 937.339 326.245 937.047 326.672C936.766 327.089 936.552 327.578 936.406 328.141C936.26 328.703 936.188 329.307 936.188 329.953ZM959.516 334.328C959.516 334.005 959.422 333.714 959.234 333.453C959.047 333.193 958.698 332.953 958.188 332.734C957.688 332.505 956.964 332.297 956.016 332.109C955.161 331.922 954.365 331.688 953.625 331.406C952.896 331.115 952.26 330.766 951.719 330.359C951.188 329.953 950.771 329.474 950.469 328.922C950.167 328.359 950.016 327.719 950.016 327C950.016 326.292 950.167 325.625 950.469 325C950.781 324.375 951.224 323.823 951.797 323.344C952.38 322.854 953.089 322.474 953.922 322.203C954.766 321.922 955.714 321.781 956.766 321.781C958.234 321.781 959.495 322.016 960.547 322.484C961.609 322.953 962.422 323.599 962.984 324.422C963.557 325.234 963.844 326.161 963.844 327.203H959.344C959.344 326.766 959.25 326.375 959.062 326.031C958.885 325.677 958.604 325.401 958.219 325.203C957.844 324.995 957.354 324.891 956.75 324.891C956.25 324.891 955.818 324.979 955.453 325.156C955.089 325.323 954.807 325.552 954.609 325.844C954.422 326.125 954.328 326.438 954.328 326.781C954.328 327.042 954.38 327.276 954.484 327.484C954.599 327.682 954.781 327.865 955.031 328.031C955.281 328.198 955.604 328.354 956 328.5C956.406 328.635 956.906 328.76 957.5 328.875C958.719 329.125 959.807 329.453 960.766 329.859C961.724 330.255 962.484 330.797 963.047 331.484C963.609 332.161 963.891 333.052 963.891 334.156C963.891 334.906 963.724 335.594 963.391 336.219C963.057 336.844 962.578 337.391 961.953 337.859C961.328 338.318 960.578 338.677 959.703 338.938C958.839 339.188 957.865 339.312 956.781 339.312C955.208 339.312 953.875 339.031 952.781 338.469C951.698 337.906 950.875 337.193 950.312 336.328C949.76 335.453 949.484 334.557 949.484 333.641H953.75C953.771 334.255 953.927 334.75 954.219 335.125C954.521 335.5 954.901 335.771 955.359 335.938C955.828 336.104 956.333 336.188 956.875 336.188C957.458 336.188 957.943 336.109 958.328 335.953C958.714 335.786 959.005 335.568 959.203 335.297C959.411 335.016 959.516 334.693 959.516 334.328ZM988.25 331.453H992.922C992.828 332.984 992.406 334.344 991.656 335.531C990.917 336.719 989.88 337.646 988.547 338.312C987.224 338.979 985.63 339.312 983.766 339.312C982.307 339.312 981 339.062 979.844 338.562C978.688 338.052 977.698 337.323 976.875 336.375C976.062 335.427 975.443 334.281 975.016 332.938C974.589 331.594 974.375 330.089 974.375 328.422V326.844C974.375 325.177 974.594 323.672 975.031 322.328C975.479 320.974 976.115 319.823 976.938 318.875C977.771 317.927 978.766 317.198 979.922 316.688C981.078 316.177 982.37 315.922 983.797 315.922C985.693 315.922 987.292 316.266 988.594 316.953C989.906 317.641 990.922 318.589 991.641 319.797C992.37 321.005 992.807 322.38 992.953 323.922H988.266C988.214 323.005 988.031 322.229 987.719 321.594C987.406 320.948 986.932 320.464 986.297 320.141C985.672 319.807 984.839 319.641 983.797 319.641C983.016 319.641 982.333 319.786 981.75 320.078C981.167 320.37 980.677 320.812 980.281 321.406C979.885 322 979.589 322.75 979.391 323.656C979.203 324.552 979.109 325.604 979.109 326.812V328.422C979.109 329.599 979.198 330.635 979.375 331.531C979.552 332.417 979.823 333.167 980.188 333.781C980.562 334.385 981.042 334.844 981.625 335.156C982.219 335.458 982.932 335.609 983.766 335.609C984.745 335.609 985.552 335.453 986.188 335.141C986.823 334.828 987.307 334.365 987.641 333.75C987.984 333.135 988.188 332.37 988.25 331.453ZM1014.69 327.094V328.172C1014.69 329.901 1014.45 331.453 1013.98 332.828C1013.52 334.203 1012.85 335.375 1012 336.344C1011.15 337.302 1010.12 338.036 1008.94 338.547C1007.76 339.057 1006.45 339.312 1005.02 339.312C1003.59 339.312 1002.28 339.057 1001.09 338.547C999.917 338.036 998.896 337.302 998.031 336.344C997.167 335.375 996.495 334.203 996.016 332.828C995.547 331.453 995.312 329.901 995.312 328.172V327.094C995.312 325.354 995.547 323.802 996.016 322.438C996.484 321.062 997.146 319.891 998 318.922C998.865 317.953 999.885 317.214 1001.06 316.703C1002.25 316.193 1003.56 315.938 1004.98 315.938C1006.42 315.938 1007.73 316.193 1008.91 316.703C1010.09 317.214 1011.11 317.953 1011.97 318.922C1012.83 319.891 1013.5 321.062 1013.97 322.438C1014.45 323.802 1014.69 325.354 1014.69 327.094ZM1009.95 328.172V327.062C1009.95 325.854 1009.84 324.792 1009.62 323.875C1009.41 322.958 1009.08 322.188 1008.66 321.562C1008.23 320.938 1007.71 320.469 1007.09 320.156C1006.48 319.833 1005.78 319.672 1004.98 319.672C1004.19 319.672 1003.49 319.833 1002.88 320.156C1002.27 320.469 1001.76 320.938 1001.33 321.562C1000.91 322.188 1000.59 322.958 1000.38 323.875C1000.16 324.792 1000.05 325.854 1000.05 327.062V328.172C1000.05 329.37 1000.16 330.432 1000.38 331.359C1000.59 332.276 1000.92 333.052 1001.34 333.688C1001.77 334.312 1002.29 334.786 1002.91 335.109C1003.52 335.432 1004.22 335.594 1005.02 335.594C1005.81 335.594 1006.51 335.432 1007.12 335.109C1007.74 334.786 1008.26 334.312 1008.67 333.688C1009.09 333.052 1009.41 332.276 1009.62 331.359C1009.84 330.432 1009.95 329.37 1009.95 328.172ZM1041.5 339.312C1040.19 339.312 1039.01 339.104 1037.97 338.688C1036.93 338.26 1036.04 337.672 1035.31 336.922C1034.59 336.172 1034.04 335.302 1033.66 334.312C1033.27 333.312 1033.08 332.25 1033.08 331.125V330.5C1033.08 329.219 1033.26 328.047 1033.62 326.984C1033.99 325.922 1034.51 325 1035.19 324.219C1035.88 323.438 1036.71 322.839 1037.69 322.422C1038.67 321.995 1039.77 321.781 1041 321.781C1042.2 321.781 1043.26 321.979 1044.19 322.375C1045.11 322.771 1045.89 323.333 1046.52 324.062C1047.15 324.792 1047.63 325.667 1047.95 326.688C1048.28 327.698 1048.44 328.823 1048.44 330.062V331.938H1035V328.938H1044.02V328.594C1044.02 327.969 1043.9 327.411 1043.67 326.922C1043.45 326.422 1043.12 326.026 1042.67 325.734C1042.22 325.443 1041.65 325.297 1040.95 325.297C1040.36 325.297 1039.85 325.427 1039.42 325.688C1038.99 325.948 1038.65 326.312 1038.38 326.781C1038.11 327.25 1037.92 327.802 1037.78 328.438C1037.66 329.062 1037.59 329.75 1037.59 330.5V331.125C1037.59 331.802 1037.69 332.427 1037.88 333C1038.07 333.573 1038.35 334.068 1038.7 334.484C1039.07 334.901 1039.51 335.224 1040.02 335.453C1040.54 335.682 1041.12 335.797 1041.78 335.797C1042.59 335.797 1043.35 335.641 1044.05 335.328C1044.76 335.005 1045.36 334.521 1045.88 333.875L1048.06 336.25C1047.71 336.76 1047.22 337.25 1046.61 337.719C1046.01 338.188 1045.28 338.573 1044.42 338.875C1043.57 339.167 1042.59 339.312 1041.5 339.312ZM1060.98 345.5V325.547L1061.56 322.094H1065.52V345.5H1060.98ZM1050.3 330.719V330.391C1050.3 329.099 1050.44 327.927 1050.72 326.875C1051.01 325.812 1051.44 324.906 1052 324.156C1052.56 323.396 1053.25 322.812 1054.06 322.406C1054.89 321.99 1055.83 321.781 1056.91 321.781C1057.94 321.781 1058.83 321.99 1059.58 322.406C1060.33 322.823 1060.96 323.411 1061.47 324.172C1061.99 324.932 1062.41 325.828 1062.72 326.859C1063.03 327.891 1063.27 329.021 1063.44 330.25V330.969C1063.28 332.146 1063.04 333.24 1062.72 334.25C1062.41 335.26 1061.99 336.146 1061.47 336.906C1060.96 337.667 1060.32 338.26 1059.56 338.688C1058.81 339.104 1057.92 339.312 1056.88 339.312C1055.82 339.312 1054.89 339.099 1054.06 338.672C1053.25 338.234 1052.56 337.63 1052 336.859C1051.44 336.089 1051.01 335.182 1050.72 334.141C1050.44 333.089 1050.3 331.948 1050.3 330.719ZM1054.8 330.391V330.719C1054.8 331.417 1054.85 332.073 1054.97 332.688C1055.08 333.292 1055.27 333.828 1055.52 334.297C1055.78 334.766 1056.11 335.135 1056.52 335.406C1056.92 335.667 1057.42 335.797 1058.02 335.797C1058.84 335.797 1059.5 335.62 1060 335.266C1060.51 334.901 1060.89 334.406 1061.12 333.781C1061.38 333.156 1061.52 332.443 1061.56 331.641V329.594C1061.53 328.938 1061.44 328.349 1061.3 327.828C1061.16 327.297 1060.95 326.844 1060.67 326.469C1060.4 326.094 1060.05 325.807 1059.61 325.609C1059.18 325.401 1058.66 325.297 1058.05 325.297C1057.46 325.297 1056.96 325.427 1056.55 325.688C1056.13 325.948 1055.79 326.312 1055.53 326.781C1055.28 327.24 1055.09 327.776 1054.97 328.391C1054.85 329.005 1054.8 329.672 1054.8 330.391ZM1079.06 334.953V322.094H1083.56V339H1079.33L1079.06 334.953ZM1079.56 331.484L1080.89 331.453C1080.89 332.578 1080.76 333.625 1080.5 334.594C1080.24 335.552 1079.85 336.385 1079.33 337.094C1078.81 337.792 1078.15 338.339 1077.36 338.734C1076.57 339.12 1075.64 339.312 1074.56 339.312C1073.74 339.312 1072.98 339.198 1072.28 338.969C1071.59 338.729 1071 338.359 1070.5 337.859C1070.01 337.349 1069.62 336.698 1069.34 335.906C1069.07 335.104 1068.94 334.141 1068.94 333.016V322.094H1073.44V333.047C1073.44 333.547 1073.49 333.969 1073.61 334.312C1073.73 334.656 1073.91 334.938 1074.12 335.156C1074.34 335.375 1074.6 335.531 1074.89 335.625C1075.19 335.719 1075.53 335.766 1075.89 335.766C1076.82 335.766 1077.55 335.578 1078.08 335.203C1078.62 334.828 1079 334.318 1079.22 333.672C1079.45 333.016 1079.56 332.286 1079.56 331.484ZM1091.75 322.094V339H1087.23V322.094H1091.75ZM1086.95 317.688C1086.95 317.031 1087.18 316.49 1087.64 316.062C1088.1 315.635 1088.71 315.422 1089.48 315.422C1090.24 315.422 1090.85 315.635 1091.31 316.062C1091.78 316.49 1092.02 317.031 1092.02 317.688C1092.02 318.344 1091.78 318.885 1091.31 319.312C1090.85 319.74 1090.24 319.953 1089.48 319.953C1088.71 319.953 1088.1 319.74 1087.64 319.312C1087.18 318.885 1086.95 318.344 1086.95 317.688ZM1101.22 335.719L1104.97 322.094H1109.67L1103.97 339H1101.12L1101.22 335.719ZM1098.64 322.094L1102.41 335.734L1102.48 339H1099.62L1093.92 322.094H1098.64ZM1120.56 335.188V327.656C1120.56 327.115 1120.47 326.651 1120.3 326.266C1120.12 325.87 1119.84 325.562 1119.47 325.344C1119.1 325.125 1118.63 325.016 1118.05 325.016C1117.55 325.016 1117.11 325.104 1116.75 325.281C1116.39 325.448 1116.1 325.693 1115.91 326.016C1115.71 326.328 1115.61 326.698 1115.61 327.125H1111.11C1111.11 326.406 1111.28 325.724 1111.61 325.078C1111.94 324.432 1112.43 323.865 1113.06 323.375C1113.7 322.875 1114.45 322.484 1115.33 322.203C1116.21 321.922 1117.2 321.781 1118.3 321.781C1119.61 321.781 1120.78 322 1121.8 322.438C1122.82 322.875 1123.62 323.531 1124.2 324.406C1124.8 325.281 1125.09 326.375 1125.09 327.688V334.922C1125.09 335.849 1125.15 336.609 1125.27 337.203C1125.38 337.786 1125.55 338.297 1125.77 338.734V339H1121.22C1121 338.542 1120.83 337.969 1120.72 337.281C1120.61 336.583 1120.56 335.885 1120.56 335.188ZM1121.16 328.703L1121.19 331.25H1118.67C1118.08 331.25 1117.56 331.318 1117.12 331.453C1116.69 331.589 1116.33 331.781 1116.05 332.031C1115.77 332.271 1115.56 332.552 1115.42 332.875C1115.3 333.198 1115.23 333.552 1115.23 333.938C1115.23 334.323 1115.32 334.672 1115.5 334.984C1115.68 335.286 1115.93 335.526 1116.27 335.703C1116.6 335.87 1116.99 335.953 1117.44 335.953C1118.11 335.953 1118.7 335.818 1119.2 335.547C1119.7 335.276 1120.09 334.943 1120.36 334.547C1120.64 334.151 1120.79 333.776 1120.8 333.422L1121.98 335.328C1121.82 335.755 1121.59 336.198 1121.3 336.656C1121.02 337.115 1120.66 337.547 1120.22 337.953C1119.78 338.349 1119.26 338.677 1118.64 338.938C1118.03 339.188 1117.3 339.312 1116.45 339.312C1115.38 339.312 1114.41 339.099 1113.53 338.672C1112.67 338.234 1111.98 337.635 1111.47 336.875C1110.97 336.104 1110.72 335.229 1110.72 334.25C1110.72 333.365 1110.89 332.578 1111.22 331.891C1111.55 331.203 1112.04 330.625 1112.69 330.156C1113.34 329.677 1114.16 329.318 1115.14 329.078C1116.12 328.828 1117.26 328.703 1118.55 328.703H1121.16ZM1133.31 315V339H1128.8V315H1133.31ZM1144.81 339.312C1143.5 339.312 1142.32 339.104 1141.28 338.688C1140.24 338.26 1139.35 337.672 1138.62 336.922C1137.91 336.172 1137.35 335.302 1136.97 334.312C1136.58 333.312 1136.39 332.25 1136.39 331.125V330.5C1136.39 329.219 1136.57 328.047 1136.94 326.984C1137.3 325.922 1137.82 325 1138.5 324.219C1139.19 323.438 1140.02 322.839 1141 322.422C1141.98 321.995 1143.08 321.781 1144.31 321.781C1145.51 321.781 1146.57 321.979 1147.5 322.375C1148.43 322.771 1149.2 323.333 1149.83 324.062C1150.46 324.792 1150.94 325.667 1151.27 326.688C1151.59 327.698 1151.75 328.823 1151.75 330.062V331.938H1138.31V328.938H1147.33V328.594C1147.33 327.969 1147.21 327.411 1146.98 326.922C1146.77 326.422 1146.43 326.026 1145.98 325.734C1145.54 325.443 1144.96 325.297 1144.27 325.297C1143.67 325.297 1143.16 325.427 1142.73 325.688C1142.31 325.948 1141.96 326.312 1141.69 326.781C1141.43 327.25 1141.23 327.802 1141.09 328.438C1140.97 329.062 1140.91 329.75 1140.91 330.5V331.125C1140.91 331.802 1141 332.427 1141.19 333C1141.39 333.573 1141.66 334.068 1142.02 334.484C1142.38 334.901 1142.82 335.224 1143.33 335.453C1143.85 335.682 1144.44 335.797 1145.09 335.797C1145.91 335.797 1146.66 335.641 1147.36 335.328C1148.07 335.005 1148.68 334.521 1149.19 333.875L1151.38 336.25C1151.02 336.76 1150.54 337.25 1149.92 337.719C1149.32 338.188 1148.59 338.573 1147.73 338.875C1146.88 339.167 1145.91 339.312 1144.81 339.312ZM1158.72 325.703V339H1154.22V322.094H1158.44L1158.72 325.703ZM1158.06 329.953H1156.84C1156.84 328.703 1157.01 327.578 1157.33 326.578C1157.65 325.568 1158.1 324.708 1158.69 324C1159.27 323.281 1159.96 322.734 1160.77 322.359C1161.58 321.974 1162.48 321.781 1163.48 321.781C1164.28 321.781 1165 321.896 1165.66 322.125C1166.31 322.354 1166.88 322.719 1167.34 323.219C1167.82 323.719 1168.19 324.38 1168.44 325.203C1168.7 326.026 1168.83 327.031 1168.83 328.219V339H1164.3V328.203C1164.3 327.453 1164.19 326.87 1163.98 326.453C1163.78 326.036 1163.47 325.745 1163.06 325.578C1162.67 325.401 1162.18 325.312 1161.59 325.312C1160.99 325.312 1160.46 325.432 1160.02 325.672C1159.58 325.911 1159.21 326.245 1158.92 326.672C1158.64 327.089 1158.43 327.578 1158.28 328.141C1158.14 328.703 1158.06 329.307 1158.06 329.953ZM1180.53 322.094V325.281H1170.69V322.094H1180.53ZM1173.12 317.922H1177.62V333.906C1177.62 334.396 1177.69 334.771 1177.81 335.031C1177.95 335.292 1178.15 335.474 1178.41 335.578C1178.67 335.672 1178.99 335.719 1179.39 335.719C1179.67 335.719 1179.92 335.708 1180.14 335.688C1180.37 335.656 1180.56 335.625 1180.72 335.594L1180.73 338.906C1180.35 339.031 1179.93 339.13 1179.48 339.203C1179.04 339.276 1178.54 339.312 1178 339.312C1177.01 339.312 1176.15 339.151 1175.41 338.828C1174.68 338.495 1174.11 337.964 1173.72 337.234C1173.32 336.505 1173.12 335.547 1173.12 334.359V317.922ZM1190.83 329.75V330.094C1190.83 332.219 1190.59 334.177 1190.11 335.969C1189.63 337.75 1188.99 339.328 1188.2 340.703C1187.42 342.089 1186.56 343.24 1185.62 344.156C1184.7 345.073 1183.77 345.729 1182.84 346.125L1181.97 343.812C1182.56 343.375 1183.14 342.771 1183.7 342C1184.28 341.229 1184.8 340.281 1185.27 339.156C1185.73 338.042 1186.1 336.734 1186.38 335.234C1186.66 333.734 1186.8 332.031 1186.8 330.125V329.719C1186.8 327.812 1186.66 326.109 1186.38 324.609C1186.09 323.109 1185.71 321.802 1185.23 320.688C1184.77 319.562 1184.24 318.62 1183.67 317.859C1183.11 317.089 1182.54 316.484 1181.97 316.047L1182.84 313.719C1183.77 314.115 1184.7 314.776 1185.62 315.703C1186.56 316.62 1187.42 317.766 1188.2 319.141C1188.99 320.516 1189.63 322.099 1190.11 323.891C1190.59 325.672 1190.83 327.625 1190.83 329.75Z" fill="#696969"/>
<path d="M1026.7 342.803V345H1016.98V343.125L1021.58 338.193C1022.04 337.679 1022.4 337.227 1022.67 336.836C1022.94 336.439 1023.13 336.084 1023.25 335.771C1023.37 335.452 1023.43 335.15 1023.43 334.863C1023.43 334.434 1023.36 334.066 1023.22 333.76C1023.07 333.447 1022.86 333.206 1022.58 333.037C1022.31 332.868 1021.97 332.783 1021.57 332.783C1021.14 332.783 1020.77 332.887 1020.45 333.096C1020.15 333.304 1019.91 333.594 1019.75 333.965C1019.59 334.336 1019.52 334.756 1019.52 335.225H1016.69C1016.69 334.378 1016.9 333.604 1017.3 332.9C1017.7 332.191 1018.27 331.628 1019.01 331.211C1019.74 330.788 1020.62 330.576 1021.62 330.576C1022.62 330.576 1023.46 330.739 1024.14 331.064C1024.83 331.383 1025.36 331.846 1025.71 332.451C1026.07 333.05 1026.24 333.766 1026.24 334.6C1026.24 335.068 1026.17 335.527 1026.02 335.977C1025.87 336.419 1025.65 336.862 1025.38 337.305C1025.1 337.741 1024.77 338.184 1024.38 338.633C1023.99 339.082 1023.56 339.548 1023.08 340.029L1020.61 342.803H1026.7Z" fill="#696969"/>
<path d="M2.14062 334.094V333.75C2.14062 331.552 2.36979 329.557 2.82812 327.766C3.29688 325.974 3.91146 324.401 4.67188 323.047C5.44271 321.682 6.28125 320.552 7.1875 319.656C8.09375 318.76 8.99479 318.115 9.89062 317.719L10.75 320.094C10.1562 320.531 9.57292 321.135 9 321.906C8.42708 322.667 7.90625 323.604 7.4375 324.719C6.97917 325.823 6.60938 327.125 6.32812 328.625C6.04688 330.115 5.90625 331.812 5.90625 333.719V334.125C5.90625 336.031 6.04688 337.734 6.32812 339.234C6.60938 340.724 6.97917 342.026 7.4375 343.141C7.90625 344.266 8.42708 345.214 9 345.984C9.57292 346.755 10.1562 347.365 10.75 347.812L9.89062 350.125C8.99479 349.729 8.09375 349.083 7.1875 348.188C6.28125 347.302 5.44271 346.177 4.67188 344.812C3.91146 343.458 3.29688 341.885 2.82812 340.094C2.36979 338.292 2.14062 336.292 2.14062 334.094ZM20.9062 343.312C19.5938 343.312 18.4167 343.104 17.375 342.688C16.3333 342.26 15.4479 341.672 14.7188 340.922C14 340.172 13.4479 339.302 13.0625 338.312C12.6771 337.312 12.4844 336.25 12.4844 335.125V334.5C12.4844 333.219 12.6667 332.047 13.0312 330.984C13.3958 329.922 13.9167 329 14.5938 328.219C15.2812 327.438 16.1146 326.839 17.0938 326.422C18.0729 325.995 19.1771 325.781 20.4062 325.781C21.6042 325.781 22.6667 325.979 23.5938 326.375C24.5208 326.771 25.2969 327.333 25.9219 328.062C26.5573 328.792 27.0365 329.667 27.3594 330.688C27.6823 331.698 27.8438 332.823 27.8438 334.062V335.938H14.4062V332.938H23.4219V332.594C23.4219 331.969 23.3073 331.411 23.0781 330.922C22.8594 330.422 22.526 330.026 22.0781 329.734C21.6302 329.443 21.0573 329.297 20.3594 329.297C19.7656 329.297 19.2552 329.427 18.8281 329.688C18.401 329.948 18.0521 330.312 17.7812 330.781C17.5208 331.25 17.3229 331.802 17.1875 332.438C17.0625 333.062 17 333.75 17 334.5V335.125C17 335.802 17.0938 336.427 17.2812 337C17.4792 337.573 17.7552 338.068 18.1094 338.484C18.474 338.901 18.9115 339.224 19.4219 339.453C19.9427 339.682 20.5312 339.797 21.1875 339.797C22 339.797 22.7552 339.641 23.4531 339.328C24.1615 339.005 24.7708 338.521 25.2812 337.875L27.4688 340.25C27.1146 340.76 26.6302 341.25 26.0156 341.719C25.4115 342.188 24.6823 342.573 23.8281 342.875C22.974 343.167 22 343.312 20.9062 343.312ZM35.1562 319V343H30.6406V319H35.1562ZM46.6562 343.312C45.3438 343.312 44.1667 343.104 43.125 342.688C42.0833 342.26 41.1979 341.672 40.4688 340.922C39.75 340.172 39.1979 339.302 38.8125 338.312C38.4271 337.312 38.2344 336.25 38.2344 335.125V334.5C38.2344 333.219 38.4167 332.047 38.7812 330.984C39.1458 329.922 39.6667 329 40.3438 328.219C41.0312 327.438 41.8646 326.839 42.8438 326.422C43.8229 325.995 44.9271 325.781 46.1562 325.781C47.3542 325.781 48.4167 325.979 49.3438 326.375C50.2708 326.771 51.0469 327.333 51.6719 328.062C52.3073 328.792 52.7865 329.667 53.1094 330.688C53.4323 331.698 53.5938 332.823 53.5938 334.062V335.938H40.1562V332.938H49.1719V332.594C49.1719 331.969 49.0573 331.411 48.8281 330.922C48.6094 330.422 48.276 330.026 47.8281 329.734C47.3802 329.443 46.8073 329.297 46.1094 329.297C45.5156 329.297 45.0052 329.427 44.5781 329.688C44.151 329.948 43.8021 330.312 43.5312 330.781C43.2708 331.25 43.0729 331.802 42.9375 332.438C42.8125 333.062 42.75 333.75 42.75 334.5V335.125C42.75 335.802 42.8438 336.427 43.0312 337C43.2292 337.573 43.5052 338.068 43.8594 338.484C44.224 338.901 44.6615 339.224 45.1719 339.453C45.6927 339.682 46.2812 339.797 46.9375 339.797C47.75 339.797 48.5052 339.641 49.2031 339.328C49.9115 339.005 50.5208 338.521 51.0312 337.875L53.2188 340.25C52.8646 340.76 52.3802 341.25 51.7656 341.719C51.1615 342.188 50.4323 342.573 49.5781 342.875C48.724 343.167 47.75 343.312 46.6562 343.312ZM63.1406 339.797C63.6927 339.797 64.1823 339.693 64.6094 339.484C65.0365 339.266 65.3698 338.964 65.6094 338.578C65.8594 338.182 65.9896 337.719 66 337.188H70.2344C70.224 338.375 69.9062 339.432 69.2812 340.359C68.6562 341.276 67.8177 342 66.7656 342.531C65.7135 343.052 64.5365 343.312 63.2344 343.312C61.9219 343.312 60.776 343.094 59.7969 342.656C58.8281 342.219 58.0208 341.615 57.375 340.844C56.7292 340.062 56.2448 339.156 55.9219 338.125C55.599 337.083 55.4375 335.969 55.4375 334.781V334.328C55.4375 333.13 55.599 332.016 55.9219 330.984C56.2448 329.943 56.7292 329.036 57.375 328.266C58.0208 327.484 58.8281 326.875 59.7969 326.438C60.7656 326 61.901 325.781 63.2031 325.781C64.5885 325.781 65.8021 326.047 66.8438 326.578C67.8958 327.109 68.7188 327.87 69.3125 328.859C69.9167 329.839 70.224 331 70.2344 332.344H66C65.9896 331.781 65.8698 331.271 65.6406 330.812C65.4219 330.354 65.099 329.99 64.6719 329.719C64.2552 329.438 63.7396 329.297 63.125 329.297C62.4688 329.297 61.9323 329.438 61.5156 329.719C61.099 329.99 60.776 330.365 60.5469 330.844C60.3177 331.312 60.1562 331.849 60.0625 332.453C59.9792 333.047 59.9375 333.672 59.9375 334.328V334.781C59.9375 335.438 59.9792 336.068 60.0625 336.672C60.1458 337.276 60.3021 337.812 60.5312 338.281C60.7708 338.75 61.099 339.12 61.5156 339.391C61.9323 339.661 62.474 339.797 63.1406 339.797ZM81.125 326.094V329.281H71.2812V326.094H81.125ZM73.7188 321.922H78.2188V337.906C78.2188 338.396 78.2812 338.771 78.4062 339.031C78.5417 339.292 78.7396 339.474 79 339.578C79.2604 339.672 79.5885 339.719 79.9844 339.719C80.2656 339.719 80.5156 339.708 80.7344 339.688C80.9635 339.656 81.1562 339.625 81.3125 339.594L81.3281 342.906C80.9427 343.031 80.526 343.13 80.0781 343.203C79.6302 343.276 79.1354 343.312 78.5938 343.312C77.6042 343.312 76.7396 343.151 76 342.828C75.2708 342.495 74.7083 341.964 74.3125 341.234C73.9167 340.505 73.7188 339.547 73.7188 338.359V321.922ZM88.1875 329.781V343H83.6875V326.094H87.9219L88.1875 329.781ZM93.2812 325.984L93.2031 330.156C92.9844 330.125 92.7188 330.099 92.4062 330.078C92.1042 330.047 91.8281 330.031 91.5781 330.031C90.9427 330.031 90.3906 330.115 89.9219 330.281C89.4635 330.438 89.0781 330.672 88.7656 330.984C88.4635 331.297 88.2344 331.677 88.0781 332.125C87.9323 332.573 87.849 333.083 87.8281 333.656L86.9219 333.375C86.9219 332.281 87.0312 331.276 87.25 330.359C87.4688 329.432 87.7865 328.625 88.2031 327.938C88.6302 327.25 89.151 326.719 89.7656 326.344C90.3802 325.969 91.0833 325.781 91.875 325.781C92.125 325.781 92.3802 325.802 92.6406 325.844C92.901 325.875 93.1146 325.922 93.2812 325.984ZM100.156 326.094V343H95.6406V326.094H100.156ZM95.3594 321.688C95.3594 321.031 95.5885 320.49 96.0469 320.062C96.5052 319.635 97.1198 319.422 97.8906 319.422C98.651 319.422 99.2604 319.635 99.7188 320.062C100.188 320.49 100.422 321.031 100.422 321.688C100.422 322.344 100.188 322.885 99.7188 323.312C99.2604 323.74 98.651 323.953 97.8906 323.953C97.1198 323.953 96.5052 323.74 96.0469 323.312C95.5885 322.885 95.3594 322.344 95.3594 321.688ZM110.859 339.797C111.411 339.797 111.901 339.693 112.328 339.484C112.755 339.266 113.089 338.964 113.328 338.578C113.578 338.182 113.708 337.719 113.719 337.188H117.953C117.943 338.375 117.625 339.432 117 340.359C116.375 341.276 115.536 342 114.484 342.531C113.432 343.052 112.255 343.312 110.953 343.312C109.641 343.312 108.495 343.094 107.516 342.656C106.547 342.219 105.74 341.615 105.094 340.844C104.448 340.062 103.964 339.156 103.641 338.125C103.318 337.083 103.156 335.969 103.156 334.781V334.328C103.156 333.13 103.318 332.016 103.641 330.984C103.964 329.943 104.448 329.036 105.094 328.266C105.74 327.484 106.547 326.875 107.516 326.438C108.484 326 109.62 325.781 110.922 325.781C112.307 325.781 113.521 326.047 114.562 326.578C115.615 327.109 116.438 327.87 117.031 328.859C117.635 329.839 117.943 331 117.953 332.344H113.719C113.708 331.781 113.589 331.271 113.359 330.812C113.141 330.354 112.818 329.99 112.391 329.719C111.974 329.438 111.458 329.297 110.844 329.297C110.188 329.297 109.651 329.438 109.234 329.719C108.818 329.99 108.495 330.365 108.266 330.844C108.036 331.312 107.875 331.849 107.781 332.453C107.698 333.047 107.656 333.672 107.656 334.328V334.781C107.656 335.438 107.698 336.068 107.781 336.672C107.865 337.276 108.021 337.812 108.25 338.281C108.49 338.75 108.818 339.12 109.234 339.391C109.651 339.661 110.193 339.797 110.859 339.797ZM125.312 326.094V343H120.797V326.094H125.312ZM120.516 321.688C120.516 321.031 120.745 320.49 121.203 320.062C121.661 319.635 122.276 319.422 123.047 319.422C123.807 319.422 124.417 319.635 124.875 320.062C125.344 320.49 125.578 321.031 125.578 321.688C125.578 322.344 125.344 322.885 124.875 323.312C124.417 323.74 123.807 323.953 123.047 323.953C122.276 323.953 121.661 323.74 121.203 323.312C120.745 322.885 120.516 322.344 120.516 321.688ZM137.312 326.094V329.281H127.469V326.094H137.312ZM129.906 321.922H134.406V337.906C134.406 338.396 134.469 338.771 134.594 339.031C134.729 339.292 134.927 339.474 135.188 339.578C135.448 339.672 135.776 339.719 136.172 339.719C136.453 339.719 136.703 339.708 136.922 339.688C137.151 339.656 137.344 339.625 137.5 339.594L137.516 342.906C137.13 343.031 136.714 343.13 136.266 343.203C135.818 343.276 135.323 343.312 134.781 343.312C133.792 343.312 132.927 343.151 132.188 342.828C131.458 342.495 130.896 341.964 130.5 341.234C130.104 340.505 129.906 339.547 129.906 338.359V321.922ZM144.891 341.094L149.375 326.094H154.203L147.406 345.547C147.26 345.974 147.062 346.432 146.812 346.922C146.573 347.411 146.245 347.875 145.828 348.312C145.422 348.76 144.906 349.125 144.281 349.406C143.667 349.688 142.911 349.828 142.016 349.828C141.589 349.828 141.24 349.802 140.969 349.75C140.698 349.698 140.375 349.625 140 349.531V346.234C140.115 346.234 140.234 346.234 140.359 346.234C140.484 346.245 140.604 346.25 140.719 346.25C141.312 346.25 141.797 346.182 142.172 346.047C142.547 345.911 142.849 345.703 143.078 345.422C143.307 345.151 143.49 344.797 143.625 344.359L144.891 341.094ZM143.016 326.094L146.688 338.344L147.328 343.109L144.266 343.438L138.188 326.094H143.016ZM157.953 339.203L157.938 342.219C157.938 343.375 157.646 344.542 157.062 345.719C156.49 346.896 155.76 347.859 154.875 348.609L152.531 347.406C152.792 346.927 153.047 346.448 153.297 345.969C153.547 345.49 153.755 344.964 153.922 344.391C154.089 343.818 154.172 343.167 154.172 342.438V339.203H157.953ZM180.234 326.094H184.312V342.438C184.312 343.979 183.969 345.286 183.281 346.359C182.604 347.443 181.656 348.26 180.438 348.812C179.219 349.375 177.802 349.656 176.188 349.656C175.479 349.656 174.729 349.562 173.938 349.375C173.156 349.188 172.406 348.896 171.688 348.5C170.979 348.104 170.385 347.604 169.906 347L171.891 344.344C172.411 344.948 173.016 345.417 173.703 345.75C174.391 346.094 175.151 346.266 175.984 346.266C176.797 346.266 177.484 346.115 178.047 345.812C178.609 345.521 179.042 345.089 179.344 344.516C179.646 343.953 179.797 343.271 179.797 342.469V330L180.234 326.094ZM168.859 334.75V334.422C168.859 333.13 169.016 331.958 169.328 330.906C169.651 329.844 170.104 328.932 170.688 328.172C171.281 327.411 172 326.823 172.844 326.406C173.688 325.99 174.641 325.781 175.703 325.781C176.828 325.781 177.771 325.99 178.531 326.406C179.292 326.823 179.917 327.417 180.406 328.188C180.896 328.948 181.276 329.849 181.547 330.891C181.828 331.922 182.047 333.052 182.203 334.281V335C182.047 336.177 181.812 337.271 181.5 338.281C181.188 339.292 180.776 340.177 180.266 340.938C179.755 341.688 179.12 342.271 178.359 342.688C177.609 343.104 176.714 343.312 175.672 343.312C174.63 343.312 173.688 343.099 172.844 342.672C172.01 342.245 171.297 341.646 170.703 340.875C170.109 340.104 169.651 339.198 169.328 338.156C169.016 337.115 168.859 335.979 168.859 334.75ZM173.359 334.422V334.75C173.359 335.448 173.427 336.099 173.562 336.703C173.698 337.307 173.906 337.844 174.188 338.312C174.479 338.771 174.839 339.13 175.266 339.391C175.703 339.641 176.219 339.766 176.812 339.766C177.635 339.766 178.307 339.594 178.828 339.25C179.349 338.896 179.74 338.411 180 337.797C180.26 337.182 180.411 336.474 180.453 335.672V333.625C180.432 332.969 180.344 332.38 180.188 331.859C180.031 331.328 179.812 330.875 179.531 330.5C179.25 330.125 178.885 329.833 178.438 329.625C177.99 329.417 177.458 329.312 176.844 329.312C176.25 329.312 175.734 329.448 175.297 329.719C174.87 329.979 174.51 330.339 174.219 330.797C173.938 331.255 173.724 331.797 173.578 332.422C173.432 333.036 173.359 333.703 173.359 334.422ZM196.938 339.188V331.656C196.938 331.115 196.849 330.651 196.672 330.266C196.495 329.87 196.219 329.562 195.844 329.344C195.479 329.125 195.005 329.016 194.422 329.016C193.922 329.016 193.49 329.104 193.125 329.281C192.76 329.448 192.479 329.693 192.281 330.016C192.083 330.328 191.984 330.698 191.984 331.125H187.484C187.484 330.406 187.651 329.724 187.984 329.078C188.318 328.432 188.802 327.865 189.438 327.375C190.073 326.875 190.828 326.484 191.703 326.203C192.589 325.922 193.578 325.781 194.672 325.781C195.984 325.781 197.151 326 198.172 326.438C199.193 326.875 199.995 327.531 200.578 328.406C201.172 329.281 201.469 330.375 201.469 331.688V338.922C201.469 339.849 201.526 340.609 201.641 341.203C201.755 341.786 201.922 342.297 202.141 342.734V343H197.594C197.375 342.542 197.208 341.969 197.094 341.281C196.99 340.583 196.938 339.885 196.938 339.188ZM197.531 332.703L197.562 335.25H195.047C194.453 335.25 193.938 335.318 193.5 335.453C193.062 335.589 192.703 335.781 192.422 336.031C192.141 336.271 191.932 336.552 191.797 336.875C191.672 337.198 191.609 337.552 191.609 337.938C191.609 338.323 191.698 338.672 191.875 338.984C192.052 339.286 192.307 339.526 192.641 339.703C192.974 339.87 193.365 339.953 193.812 339.953C194.49 339.953 195.078 339.818 195.578 339.547C196.078 339.276 196.464 338.943 196.734 338.547C197.016 338.151 197.161 337.776 197.172 337.422L198.359 339.328C198.193 339.755 197.964 340.198 197.672 340.656C197.391 341.115 197.031 341.547 196.594 341.953C196.156 342.349 195.63 342.677 195.016 342.938C194.401 343.188 193.672 343.312 192.828 343.312C191.755 343.312 190.781 343.099 189.906 342.672C189.042 342.234 188.354 341.635 187.844 340.875C187.344 340.104 187.094 339.229 187.094 338.25C187.094 337.365 187.26 336.578 187.594 335.891C187.927 335.203 188.417 334.625 189.062 334.156C189.719 333.677 190.536 333.318 191.516 333.078C192.495 332.828 193.63 332.703 194.922 332.703H197.531ZM214.078 338.328C214.078 338.005 213.984 337.714 213.797 337.453C213.609 337.193 213.26 336.953 212.75 336.734C212.25 336.505 211.526 336.297 210.578 336.109C209.724 335.922 208.927 335.688 208.188 335.406C207.458 335.115 206.823 334.766 206.281 334.359C205.75 333.953 205.333 333.474 205.031 332.922C204.729 332.359 204.578 331.719 204.578 331C204.578 330.292 204.729 329.625 205.031 329C205.344 328.375 205.786 327.823 206.359 327.344C206.943 326.854 207.651 326.474 208.484 326.203C209.328 325.922 210.276 325.781 211.328 325.781C212.797 325.781 214.057 326.016 215.109 326.484C216.172 326.953 216.984 327.599 217.547 328.422C218.12 329.234 218.406 330.161 218.406 331.203H213.906C213.906 330.766 213.812 330.375 213.625 330.031C213.448 329.677 213.167 329.401 212.781 329.203C212.406 328.995 211.917 328.891 211.312 328.891C210.812 328.891 210.38 328.979 210.016 329.156C209.651 329.323 209.37 329.552 209.172 329.844C208.984 330.125 208.891 330.438 208.891 330.781C208.891 331.042 208.943 331.276 209.047 331.484C209.161 331.682 209.344 331.865 209.594 332.031C209.844 332.198 210.167 332.354 210.562 332.5C210.969 332.635 211.469 332.76 212.062 332.875C213.281 333.125 214.37 333.453 215.328 333.859C216.286 334.255 217.047 334.797 217.609 335.484C218.172 336.161 218.453 337.052 218.453 338.156C218.453 338.906 218.286 339.594 217.953 340.219C217.62 340.844 217.141 341.391 216.516 341.859C215.891 342.318 215.141 342.677 214.266 342.938C213.401 343.188 212.427 343.312 211.344 343.312C209.771 343.312 208.438 343.031 207.344 342.469C206.26 341.906 205.438 341.193 204.875 340.328C204.323 339.453 204.047 338.557 204.047 337.641H208.312C208.333 338.255 208.49 338.75 208.781 339.125C209.083 339.5 209.464 339.771 209.922 339.938C210.391 340.104 210.896 340.188 211.438 340.188C212.021 340.188 212.505 340.109 212.891 339.953C213.276 339.786 213.568 339.568 213.766 339.297C213.974 339.016 214.078 338.693 214.078 338.328ZM225.641 339.203L225.625 342.219C225.625 343.375 225.333 344.542 224.75 345.719C224.177 346.896 223.448 347.859 222.562 348.609L220.219 347.406C220.479 346.927 220.734 346.448 220.984 345.969C221.234 345.49 221.443 344.964 221.609 344.391C221.776 343.818 221.859 343.167 221.859 342.438V339.203H225.641ZM245 343.312C243.688 343.312 242.51 343.104 241.469 342.688C240.427 342.26 239.542 341.672 238.812 340.922C238.094 340.172 237.542 339.302 237.156 338.312C236.771 337.312 236.578 336.25 236.578 335.125V334.5C236.578 333.219 236.76 332.047 237.125 330.984C237.49 329.922 238.01 329 238.688 328.219C239.375 327.438 240.208 326.839 241.188 326.422C242.167 325.995 243.271 325.781 244.5 325.781C245.698 325.781 246.76 325.979 247.688 326.375C248.615 326.771 249.391 327.333 250.016 328.062C250.651 328.792 251.13 329.667 251.453 330.688C251.776 331.698 251.938 332.823 251.938 334.062V335.938H238.5V332.938H247.516V332.594C247.516 331.969 247.401 331.411 247.172 330.922C246.953 330.422 246.62 330.026 246.172 329.734C245.724 329.443 245.151 329.297 244.453 329.297C243.859 329.297 243.349 329.427 242.922 329.688C242.495 329.948 242.146 330.312 241.875 330.781C241.615 331.25 241.417 331.802 241.281 332.438C241.156 333.062 241.094 333.75 241.094 334.5V335.125C241.094 335.802 241.188 336.427 241.375 337C241.573 337.573 241.849 338.068 242.203 338.484C242.568 338.901 243.005 339.224 243.516 339.453C244.036 339.682 244.625 339.797 245.281 339.797C246.094 339.797 246.849 339.641 247.547 339.328C248.255 339.005 248.865 338.521 249.375 337.875L251.562 340.25C251.208 340.76 250.724 341.25 250.109 341.719C249.505 342.188 248.776 342.573 247.922 342.875C247.068 343.167 246.094 343.312 245 343.312ZM262.781 326.094V329.281H252.938V326.094H262.781ZM255.375 321.922H259.875V337.906C259.875 338.396 259.938 338.771 260.062 339.031C260.198 339.292 260.396 339.474 260.656 339.578C260.917 339.672 261.245 339.719 261.641 339.719C261.922 339.719 262.172 339.708 262.391 339.688C262.62 339.656 262.812 339.625 262.969 339.594L262.984 342.906C262.599 343.031 262.182 343.13 261.734 343.203C261.286 343.276 260.792 343.312 260.25 343.312C259.26 343.312 258.396 343.151 257.656 342.828C256.927 342.495 256.365 341.964 255.969 341.234C255.573 340.505 255.375 339.547 255.375 338.359V321.922ZM272.328 339.797C272.88 339.797 273.37 339.693 273.797 339.484C274.224 339.266 274.557 338.964 274.797 338.578C275.047 338.182 275.177 337.719 275.188 337.188H279.422C279.411 338.375 279.094 339.432 278.469 340.359C277.844 341.276 277.005 342 275.953 342.531C274.901 343.052 273.724 343.312 272.422 343.312C271.109 343.312 269.964 343.094 268.984 342.656C268.016 342.219 267.208 341.615 266.562 340.844C265.917 340.062 265.432 339.156 265.109 338.125C264.786 337.083 264.625 335.969 264.625 334.781V334.328C264.625 333.13 264.786 332.016 265.109 330.984C265.432 329.943 265.917 329.036 266.562 328.266C267.208 327.484 268.016 326.875 268.984 326.438C269.953 326 271.089 325.781 272.391 325.781C273.776 325.781 274.99 326.047 276.031 326.578C277.083 327.109 277.906 327.87 278.5 328.859C279.104 329.839 279.411 331 279.422 332.344H275.188C275.177 331.781 275.057 331.271 274.828 330.812C274.609 330.354 274.286 329.99 273.859 329.719C273.443 329.438 272.927 329.297 272.312 329.297C271.656 329.297 271.12 329.438 270.703 329.719C270.286 329.99 269.964 330.365 269.734 330.844C269.505 331.312 269.344 331.849 269.25 332.453C269.167 333.047 269.125 333.672 269.125 334.328V334.781C269.125 335.438 269.167 336.068 269.25 336.672C269.333 337.276 269.49 337.812 269.719 338.281C269.958 338.75 270.286 339.12 270.703 339.391C271.12 339.661 271.661 339.797 272.328 339.797ZM282.25 340.828C282.25 340.161 282.479 339.604 282.938 339.156C283.406 338.708 284.026 338.484 284.797 338.484C285.568 338.484 286.182 338.708 286.641 339.156C287.109 339.604 287.344 340.161 287.344 340.828C287.344 341.495 287.109 342.052 286.641 342.5C286.182 342.948 285.568 343.172 284.797 343.172C284.026 343.172 283.406 342.948 282.938 342.5C282.479 342.052 282.25 341.495 282.25 340.828ZM299.047 333.75V334.094C299.047 336.219 298.807 338.177 298.328 339.969C297.849 341.75 297.214 343.328 296.422 344.703C295.641 346.089 294.781 347.24 293.844 348.156C292.917 349.073 291.99 349.729 291.062 350.125L290.188 347.812C290.781 347.375 291.359 346.771 291.922 346C292.495 345.229 293.016 344.281 293.484 343.156C293.953 342.042 294.323 340.734 294.594 339.234C294.875 337.734 295.016 336.031 295.016 334.125V333.719C295.016 331.812 294.875 330.109 294.594 328.609C294.312 327.109 293.932 325.802 293.453 324.688C292.984 323.562 292.464 322.62 291.891 321.859C291.328 321.089 290.76 320.484 290.188 320.047L291.062 317.719C291.99 318.115 292.917 318.776 293.844 319.703C294.781 320.62 295.641 321.766 296.422 323.141C297.214 324.516 297.849 326.099 298.328 327.891C298.807 329.672 299.047 331.625 299.047 333.75Z" fill="#696969"/>
<path d="M136.594 286.688V294H112.375V286.688H136.594ZM115.438 248.5V294H106.062V248.5H115.438ZM133.438 267.031V274.156H112.375V267.031H133.438ZM136.562 248.5V255.844H112.375V248.5H136.562ZM150.312 267.406V294H141.312V260.188H149.75L150.312 267.406ZM149 275.906H146.562C146.562 273.406 146.885 271.156 147.531 269.156C148.177 267.135 149.083 265.417 150.25 264C151.417 262.562 152.802 261.469 154.406 260.719C156.031 259.948 157.844 259.562 159.844 259.562C161.427 259.562 162.875 259.792 164.188 260.25C165.5 260.708 166.625 261.438 167.562 262.438C168.521 263.438 169.25 264.76 169.75 266.406C170.271 268.052 170.531 270.062 170.531 272.438V294H161.469V272.406C161.469 270.906 161.26 269.74 160.844 268.906C160.427 268.073 159.812 267.49 159 267.156C158.208 266.802 157.229 266.625 156.062 266.625C154.854 266.625 153.802 266.865 152.906 267.344C152.031 267.823 151.302 268.49 150.719 269.344C150.156 270.177 149.729 271.156 149.438 272.281C149.146 273.406 149 274.615 149 275.906ZM192.938 294.625C190.312 294.625 187.958 294.208 185.875 293.375C183.792 292.521 182.021 291.344 180.562 289.844C179.125 288.344 178.021 286.604 177.25 284.625C176.479 282.625 176.094 280.5 176.094 278.25V277C176.094 274.438 176.458 272.094 177.188 269.969C177.917 267.844 178.958 266 180.312 264.438C181.688 262.875 183.354 261.677 185.312 260.844C187.271 259.99 189.479 259.562 191.938 259.562C194.333 259.562 196.458 259.958 198.312 260.75C200.167 261.542 201.719 262.667 202.969 264.125C204.24 265.583 205.198 267.333 205.844 269.375C206.49 271.396 206.812 273.646 206.812 276.125V279.875H179.938V273.875H197.969V273.188C197.969 271.938 197.74 270.823 197.281 269.844C196.844 268.844 196.177 268.052 195.281 267.469C194.385 266.885 193.24 266.594 191.844 266.594C190.656 266.594 189.635 266.854 188.781 267.375C187.927 267.896 187.229 268.625 186.688 269.562C186.167 270.5 185.771 271.604 185.5 272.875C185.25 274.125 185.125 275.5 185.125 277V278.25C185.125 279.604 185.312 280.854 185.688 282C186.083 283.146 186.635 284.135 187.344 284.969C188.073 285.802 188.948 286.448 189.969 286.906C191.01 287.365 192.188 287.594 193.5 287.594C195.125 287.594 196.635 287.281 198.031 286.656C199.448 286.01 200.667 285.042 201.688 283.75L206.062 288.5C205.354 289.521 204.385 290.5 203.156 291.438C201.948 292.375 200.49 293.146 198.781 293.75C197.073 294.333 195.125 294.625 192.938 294.625ZM220.938 267.562V294H211.938V260.188H220.406L220.938 267.562ZM231.125 259.969L230.969 268.312C230.531 268.25 230 268.198 229.375 268.156C228.771 268.094 228.219 268.062 227.719 268.062C226.448 268.062 225.344 268.229 224.406 268.562C223.49 268.875 222.719 269.344 222.094 269.969C221.49 270.594 221.031 271.354 220.719 272.25C220.427 273.146 220.26 274.167 220.219 275.312L218.406 274.75C218.406 272.562 218.625 270.552 219.062 268.719C219.5 266.865 220.135 265.25 220.969 263.875C221.823 262.5 222.865 261.438 224.094 260.688C225.323 259.938 226.729 259.562 228.312 259.562C228.812 259.562 229.323 259.604 229.844 259.688C230.365 259.75 230.792 259.844 231.125 259.969ZM256.156 260.188H264.312V292.875C264.312 295.958 263.625 298.573 262.25 300.719C260.896 302.885 259 304.521 256.562 305.625C254.125 306.75 251.292 307.312 248.062 307.312C246.646 307.312 245.146 307.125 243.562 306.75C242 306.375 240.5 305.792 239.062 305C237.646 304.208 236.458 303.208 235.5 302L239.469 296.688C240.51 297.896 241.719 298.833 243.094 299.5C244.469 300.188 245.99 300.531 247.656 300.531C249.281 300.531 250.656 300.229 251.781 299.625C252.906 299.042 253.771 298.177 254.375 297.031C254.979 295.906 255.281 294.542 255.281 292.938V268L256.156 260.188ZM233.406 277.5V276.844C233.406 274.26 233.719 271.917 234.344 269.812C234.99 267.688 235.896 265.865 237.062 264.344C238.25 262.823 239.688 261.646 241.375 260.812C243.062 259.979 244.969 259.562 247.094 259.562C249.344 259.562 251.229 259.979 252.75 260.812C254.271 261.646 255.521 262.833 256.5 264.375C257.479 265.896 258.24 267.698 258.781 269.781C259.344 271.844 259.781 274.104 260.094 276.562V278C259.781 280.354 259.312 282.542 258.688 284.562C258.062 286.583 257.24 288.354 256.219 289.875C255.198 291.375 253.927 292.542 252.406 293.375C250.906 294.208 249.115 294.625 247.031 294.625C244.948 294.625 243.062 294.198 241.375 293.344C239.708 292.49 238.281 291.292 237.094 289.75C235.906 288.208 234.99 286.396 234.344 284.312C233.719 282.229 233.406 279.958 233.406 277.5ZM242.406 276.844V277.5C242.406 278.896 242.542 280.198 242.812 281.406C243.083 282.615 243.5 283.688 244.062 284.625C244.646 285.542 245.365 286.26 246.219 286.781C247.094 287.281 248.125 287.531 249.312 287.531C250.958 287.531 252.302 287.188 253.344 286.5C254.385 285.792 255.167 284.823 255.688 283.594C256.208 282.365 256.51 280.948 256.594 279.344V275.25C256.552 273.938 256.375 272.76 256.062 271.719C255.75 270.656 255.312 269.75 254.75 269C254.188 268.25 253.458 267.667 252.562 267.25C251.667 266.833 250.604 266.625 249.375 266.625C248.188 266.625 247.156 266.896 246.281 267.438C245.427 267.958 244.708 268.677 244.125 269.594C243.562 270.51 243.135 271.594 242.844 272.844C242.552 274.073 242.406 275.406 242.406 276.844ZM281.344 290.188L290.312 260.188H299.969L286.375 299.094C286.083 299.948 285.688 300.865 285.188 301.844C284.708 302.823 284.052 303.75 283.219 304.625C282.406 305.521 281.375 306.25 280.125 306.812C278.896 307.375 277.385 307.656 275.594 307.656C274.74 307.656 274.042 307.604 273.5 307.5C272.958 307.396 272.312 307.25 271.562 307.062V300.469C271.792 300.469 272.031 300.469 272.281 300.469C272.531 300.49 272.771 300.5 273 300.5C274.188 300.5 275.156 300.365 275.906 300.094C276.656 299.823 277.26 299.406 277.719 298.844C278.177 298.302 278.542 297.594 278.812 296.719L281.344 290.188ZM277.594 260.188L284.938 284.688L286.219 294.219L280.094 294.875L267.938 260.188H277.594Z" fill="black"/>
<path d="M515.859 437.875V472H511.406V437.875H515.859ZM526.828 437.875V441.578H500.461V437.875H526.828ZM535.57 436V472H531.234V436H535.57ZM534.539 458.359L532.734 458.289C532.75 456.555 533.008 454.953 533.508 453.484C534.008 452 534.711 450.711 535.617 449.617C536.523 448.523 537.602 447.68 538.852 447.086C540.117 446.477 541.516 446.172 543.047 446.172C544.297 446.172 545.422 446.344 546.422 446.688C547.422 447.016 548.273 447.547 548.977 448.281C549.695 449.016 550.242 449.969 550.617 451.141C550.992 452.297 551.18 453.711 551.18 455.383V472H546.82V455.336C546.82 454.008 546.625 452.945 546.234 452.148C545.844 451.336 545.273 450.75 544.523 450.391C543.773 450.016 542.852 449.828 541.758 449.828C540.68 449.828 539.695 450.055 538.805 450.508C537.93 450.961 537.172 451.586 536.531 452.383C535.906 453.18 535.414 454.094 535.055 455.125C534.711 456.141 534.539 457.219 534.539 458.359ZM568.195 472.469C566.43 472.469 564.828 472.172 563.391 471.578C561.969 470.969 560.742 470.117 559.711 469.023C558.695 467.93 557.914 466.633 557.367 465.133C556.82 463.633 556.547 461.992 556.547 460.211V459.227C556.547 457.164 556.852 455.328 557.461 453.719C558.07 452.094 558.898 450.719 559.945 449.594C560.992 448.469 562.18 447.617 563.508 447.039C564.836 446.461 566.211 446.172 567.633 446.172C569.445 446.172 571.008 446.484 572.32 447.109C573.648 447.734 574.734 448.609 575.578 449.734C576.422 450.844 577.047 452.156 577.453 453.672C577.859 455.172 578.062 456.812 578.062 458.594V460.539H559.125V457H573.727V456.672C573.664 455.547 573.43 454.453 573.023 453.391C572.633 452.328 572.008 451.453 571.148 450.766C570.289 450.078 569.117 449.734 567.633 449.734C566.648 449.734 565.742 449.945 564.914 450.367C564.086 450.773 563.375 451.383 562.781 452.195C562.188 453.008 561.727 454 561.398 455.172C561.07 456.344 560.906 457.695 560.906 459.227V460.211C560.906 461.414 561.07 462.547 561.398 463.609C561.742 464.656 562.234 465.578 562.875 466.375C563.531 467.172 564.32 467.797 565.242 468.25C566.18 468.703 567.242 468.93 568.43 468.93C569.961 468.93 571.258 468.617 572.32 467.992C573.383 467.367 574.312 466.531 575.109 465.484L577.734 467.57C577.188 468.398 576.492 469.188 575.648 469.938C574.805 470.688 573.766 471.297 572.531 471.766C571.312 472.234 569.867 472.469 568.195 472.469ZM607.852 456.039H599.203L599.156 452.406H607.008C608.305 452.406 609.438 452.188 610.406 451.75C611.375 451.312 612.125 450.688 612.656 449.875C613.203 449.047 613.477 448.062 613.477 446.922C613.477 445.672 613.234 444.656 612.75 443.875C612.281 443.078 611.555 442.5 610.57 442.141C609.602 441.766 608.367 441.578 606.867 441.578H600.211V472H595.688V437.875H606.867C608.617 437.875 610.18 438.055 611.555 438.414C612.93 438.758 614.094 439.305 615.047 440.055C616.016 440.789 616.75 441.727 617.25 442.867C617.75 444.008 618 445.375 618 446.969C618 448.375 617.641 449.648 616.922 450.789C616.203 451.914 615.203 452.836 613.922 453.555C612.656 454.273 611.172 454.734 609.469 454.938L607.852 456.039ZM607.641 472H597.422L599.977 468.32H607.641C609.078 468.32 610.297 468.07 611.297 467.57C612.312 467.07 613.086 466.367 613.617 465.461C614.148 464.539 614.414 463.453 614.414 462.203C614.414 460.938 614.188 459.844 613.734 458.922C613.281 458 612.57 457.289 611.602 456.789C610.633 456.289 609.383 456.039 607.852 456.039H601.406L601.453 452.406H610.266L611.227 453.719C612.867 453.859 614.258 454.328 615.398 455.125C616.539 455.906 617.406 456.906 618 458.125C618.609 459.344 618.914 460.688 618.914 462.156C618.914 464.281 618.445 466.078 617.508 467.547C616.586 469 615.281 470.109 613.594 470.875C611.906 471.625 609.922 472 607.641 472ZM640.453 466.141V446.641H644.812V472H640.664L640.453 466.141ZM641.273 460.797L643.078 460.75C643.078 462.438 642.898 464 642.539 465.438C642.195 466.859 641.633 468.094 640.852 469.141C640.07 470.188 639.047 471.008 637.781 471.602C636.516 472.18 634.977 472.469 633.164 472.469C631.93 472.469 630.797 472.289 629.766 471.93C628.75 471.57 627.875 471.016 627.141 470.266C626.406 469.516 625.836 468.539 625.43 467.336C625.039 466.133 624.844 464.688 624.844 463V446.641H629.18V463.047C629.18 464.188 629.305 465.133 629.555 465.883C629.82 466.617 630.172 467.203 630.609 467.641C631.062 468.062 631.562 468.359 632.109 468.531C632.672 468.703 633.25 468.789 633.844 468.789C635.688 468.789 637.148 468.438 638.227 467.734C639.305 467.016 640.078 466.055 640.547 464.852C641.031 463.633 641.273 462.281 641.273 460.797ZM656.133 446.641V472H651.773V446.641H656.133ZM651.445 439.914C651.445 439.211 651.656 438.617 652.078 438.133C652.516 437.648 653.156 437.406 654 437.406C654.828 437.406 655.461 437.648 655.898 438.133C656.352 438.617 656.578 439.211 656.578 439.914C656.578 440.586 656.352 441.164 655.898 441.648C655.461 442.117 654.828 442.352 654 442.352C653.156 442.352 652.516 442.117 652.078 441.648C651.656 441.164 651.445 440.586 651.445 439.914ZM667.805 436V472H663.445V436H667.805ZM690.75 467.078V436H695.109V472H691.125L690.75 467.078ZM673.688 459.602V459.109C673.688 457.172 673.922 455.414 674.391 453.836C674.875 452.242 675.555 450.875 676.43 449.734C677.32 448.594 678.375 447.719 679.594 447.109C680.828 446.484 682.203 446.172 683.719 446.172C685.312 446.172 686.703 446.453 687.891 447.016C689.094 447.562 690.109 448.367 690.938 449.43C691.781 450.477 692.445 451.742 692.93 453.227C693.414 454.711 693.75 456.391 693.938 458.266V460.422C693.766 462.281 693.43 463.953 692.93 465.438C692.445 466.922 691.781 468.188 690.938 469.234C690.109 470.281 689.094 471.086 687.891 471.648C686.688 472.195 685.281 472.469 683.672 472.469C682.188 472.469 680.828 472.148 679.594 471.508C678.375 470.867 677.32 469.969 676.43 468.812C675.555 467.656 674.875 466.297 674.391 464.734C673.922 463.156 673.688 461.445 673.688 459.602ZM678.047 459.109V459.602C678.047 460.867 678.172 462.055 678.422 463.164C678.688 464.273 679.094 465.25 679.641 466.094C680.188 466.938 680.883 467.602 681.727 468.086C682.57 468.555 683.578 468.789 684.75 468.789C686.188 468.789 687.367 468.484 688.289 467.875C689.227 467.266 689.977 466.461 690.539 465.461C691.102 464.461 691.539 463.375 691.852 462.203V456.555C691.664 455.695 691.391 454.867 691.031 454.07C690.688 453.258 690.234 452.539 689.672 451.914C689.125 451.273 688.445 450.766 687.633 450.391C686.836 450.016 685.891 449.828 684.797 449.828C683.609 449.828 682.586 450.078 681.727 450.578C680.883 451.062 680.188 451.734 679.641 452.594C679.094 453.438 678.688 454.422 678.422 455.547C678.172 456.656 678.047 457.844 678.047 459.109ZM706.57 446.641V472H702.211V446.641H706.57ZM701.883 439.914C701.883 439.211 702.094 438.617 702.516 438.133C702.953 437.648 703.594 437.406 704.438 437.406C705.266 437.406 705.898 437.648 706.336 438.133C706.789 438.617 707.016 439.211 707.016 439.914C707.016 440.586 706.789 441.164 706.336 441.648C705.898 442.117 705.266 442.352 704.438 442.352C703.594 442.352 702.953 442.117 702.516 441.648C702.094 441.164 701.883 440.586 701.883 439.914ZM717.867 452.055V472H713.531V446.641H717.633L717.867 452.055ZM716.836 458.359L715.031 458.289C715.047 456.555 715.305 454.953 715.805 453.484C716.305 452 717.008 450.711 717.914 449.617C718.82 448.523 719.898 447.68 721.148 447.086C722.414 446.477 723.812 446.172 725.344 446.172C726.594 446.172 727.719 446.344 728.719 446.688C729.719 447.016 730.57 447.547 731.273 448.281C731.992 449.016 732.539 449.969 732.914 451.141C733.289 452.297 733.477 453.711 733.477 455.383V472H729.117V455.336C729.117 454.008 728.922 452.945 728.531 452.148C728.141 451.336 727.57 450.75 726.82 450.391C726.07 450.016 725.148 449.828 724.055 449.828C722.977 449.828 721.992 450.055 721.102 450.508C720.227 450.961 719.469 451.586 718.828 452.383C718.203 453.18 717.711 454.094 717.352 455.125C717.008 456.141 716.836 457.219 716.836 458.359ZM756.492 446.641H760.43V471.461C760.43 473.695 759.977 475.602 759.07 477.18C758.164 478.758 756.898 479.953 755.273 480.766C753.664 481.594 751.805 482.008 749.695 482.008C748.82 482.008 747.789 481.867 746.602 481.586C745.43 481.32 744.273 480.859 743.133 480.203C742.008 479.562 741.062 478.695 740.297 477.602L742.57 475.023C743.633 476.305 744.742 477.195 745.898 477.695C747.07 478.195 748.227 478.445 749.367 478.445C750.742 478.445 751.93 478.188 752.93 477.672C753.93 477.156 754.703 476.391 755.25 475.375C755.812 474.375 756.094 473.141 756.094 471.672V452.219L756.492 446.641ZM739.031 459.602V459.109C739.031 457.172 739.258 455.414 739.711 453.836C740.18 452.242 740.844 450.875 741.703 449.734C742.578 448.594 743.633 447.719 744.867 447.109C746.102 446.484 747.492 446.172 749.039 446.172C750.633 446.172 752.023 446.453 753.211 447.016C754.414 447.562 755.43 448.367 756.258 449.43C757.102 450.477 757.766 451.742 758.25 453.227C758.734 454.711 759.07 456.391 759.258 458.266V460.422C759.086 462.281 758.75 463.953 758.25 465.438C757.766 466.922 757.102 468.188 756.258 469.234C755.43 470.281 754.414 471.086 753.211 471.648C752.008 472.195 750.602 472.469 748.992 472.469C747.477 472.469 746.102 472.148 744.867 471.508C743.648 470.867 742.602 469.969 741.727 468.812C740.852 467.656 740.18 466.297 739.711 464.734C739.258 463.156 739.031 461.445 739.031 459.602ZM743.367 459.109V459.602C743.367 460.867 743.492 462.055 743.742 463.164C744.008 464.273 744.406 465.25 744.938 466.094C745.484 466.938 746.18 467.602 747.023 468.086C747.867 468.555 748.875 468.789 750.047 468.789C751.484 468.789 752.672 468.484 753.609 467.875C754.547 467.266 755.289 466.461 755.836 465.461C756.398 464.461 756.836 463.375 757.148 462.203V456.555C756.977 455.695 756.711 454.867 756.352 454.07C756.008 453.258 755.555 452.539 754.992 451.914C754.445 451.273 753.766 450.766 752.953 450.391C752.141 450.016 751.188 449.828 750.094 449.828C748.906 449.828 747.883 450.078 747.023 450.578C746.18 451.062 745.484 451.734 744.938 452.594C744.406 453.438 744.008 454.422 743.742 455.547C743.492 456.656 743.367 457.844 743.367 459.109Z" fill="black"/>
</svg>
