<svg width="202" height="178" viewBox="0 0 202 178" fill="none" xmlns="http://www.w3.org/2000/svg">
<path d="M45.6924 14.7875C68.0793 31.5534 92.1591 65.5477 101 83.7911C109.841 65.5491 133.92 31.5531 156.308 14.7875C172.461 2.6899 198.633 -6.67055 198.633 23.1149C198.633 29.0635 195.214 73.0859 193.209 80.2327C186.239 105.08 160.841 111.418 138.248 107.582C177.739 114.287 187.786 136.496 166.09 158.705C124.885 200.884 106.867 148.122 102.248 134.602C101.401 132.124 101.005 130.964 100.999 131.95C100.994 130.964 100.597 132.124 99.7511 134.602C95.1341 148.122 77.116 200.886 35.909 158.705C14.2129 136.496 24.2587 114.285 63.7504 107.582C41.1573 111.418 15.7585 105.08 8.78952 80.2327C6.78426 73.0852 3.36548 29.0628 3.36548 23.1149C3.36548 -6.67055 29.5386 2.6899 45.6912 14.7875H45.6924Z" fill="white"/>
</svg>
