<svg width="31" height="23" viewBox="0 0 31 23" fill="none" xmlns="http://www.w3.org/2000/svg">
<path d="M30.2174 4.49158C30.2174 4.97559 30.0238 5.4596 29.6755 5.80808L13.0303 22.4579C12.6819 22.8064 12.198 23 11.7142 23C11.2303 23 10.7464 22.8064 10.398 22.4579L0.759327 12.8165C0.41094 12.468 0.217392 11.984 0.217392 11.5C0.217392 11.016 0.41094 10.532 0.759327 10.1835L3.39159 7.5505C3.73997 7.20202 4.22384 7.00842 4.70771 7.00842C5.19159 7.00842 5.67546 7.20202 6.02384 7.5505L11.7142 13.2618L24.4109 0.542087C24.7593 0.193603 25.2432 0 25.7271 0C26.2109 0 26.6948 0.193603 27.0432 0.542087L29.6755 3.17508C30.0238 3.52357 30.2174 4.00758 30.2174 4.49158Z" fill="#009F49"/>
</svg>
