<svg width="200" height="232" viewBox="0 0 200 232" fill="none" xmlns="http://www.w3.org/2000/svg">
<path d="M178.765 210.774V63.183H63.2099V210.774H178.765ZM178.765 42.4511C184.362 42.4511 189.3 44.5078 193.58 48.6213C197.86 52.7348 200 57.5887 200 63.183V210.774C200 216.369 197.86 221.305 193.58 225.583C189.3 229.861 184.362 232 178.765 232H63.2099C57.6132 232 52.6749 229.861 48.3951 225.583C44.1152 221.305 41.9753 216.369 41.9753 210.774V63.183C41.9753 57.5887 44.1152 52.7348 48.3951 48.6213C52.6749 44.5078 57.6132 42.4511 63.2099 42.4511H178.765ZM147.16 0V21.2255H20.7407V168.817H0V21.2255C0 15.6312 2.05761 10.695 6.17284 6.41702C10.2881 2.13901 15.144 0 20.7407 0H147.16Z" fill="white"/>
</svg>
