<svg width="34" height="35" viewBox="0 0 34 35" fill="none" xmlns="http://www.w3.org/2000/svg">
<path d="M33.875 27.94C33.875 28.6575 33.5909 29.375 33.0795 29.8915L29.2159 33.7946C28.7045 34.3112 27.9943 34.5982 27.2841 34.5982C26.5739 34.5982 25.8636 34.3112 25.3523 33.7946L17 25.3571L8.64773 33.7946C8.13636 34.3112 7.42614 34.5982 6.71591 34.5982C6.00568 34.5982 5.29545 34.3112 4.78409 33.7946L0.920455 29.8915C0.409091 29.375 0.125 28.6575 0.125 27.94C0.125 27.2225 0.409091 26.5051 0.920455 25.9885L9.27273 17.551L0.920455 9.11348C0.409091 8.5969 0.125 7.87942 0.125 7.16195C0.125 6.44447 0.409091 5.727 0.920455 5.21042L4.78409 1.30736C5.29545 0.790774 6.00568 0.503784 6.71591 0.503784C7.42614 0.503784 8.13636 0.790774 8.64773 1.30736L17 9.74485L25.3523 1.30736C25.8636 0.790774 26.5739 0.503784 27.2841 0.503784C27.9943 0.503784 28.7045 0.790774 29.2159 1.30736L33.0795 5.21042C33.5909 5.727 33.875 6.44447 33.875 7.16195C33.875 7.87942 33.5909 8.5969 33.0795 9.11348L24.7273 17.551L33.0795 25.9885C33.5909 26.5051 33.875 27.2225 33.875 27.94Z" fill="#D80000"/>
</svg>
