<svg width="570" height="82" viewBox="0 0 570 82" fill="none" xmlns="http://www.w3.org/2000/svg">
<path d="M154.288 69.92L149.424 50.912L130.48 56.16L144.496 42.4L130.48 28.64L149.424 33.888L154.288 14.88L159.216 33.888L178.16 28.64L164.144 42.4L178.16 56.16L159.216 50.912L154.288 69.92Z" fill="#E4002B"/>
<path d="M195.976 68V16.8H214.248V22.944H202.888V39.008H213.608V45.152H202.888V61.856H214.248V68H195.976ZM218.76 68V16.8H225.672V68H218.76ZM241.091 68.544C237.464 68.544 234.83 67.7973 233.187 66.304C231.566 64.8107 230.659 62.3573 230.467 58.944C230.424 57.728 230.392 56.2453 230.371 54.496C230.35 52.7253 230.339 50.88 230.339 48.96C230.339 47.0187 230.35 45.152 230.371 43.36C230.392 41.568 230.424 40.032 230.467 38.752C230.702 35.2747 231.63 32.7893 233.251 31.296C234.872 29.8027 237.464 29.056 241.027 29.056C244.526 29.056 247.064 29.792 248.643 31.264C250.243 32.7147 251.128 35.1147 251.299 38.464C251.32 39.04 251.331 39.9467 251.331 41.184C251.352 42.4 251.352 43.7973 251.331 45.376C251.331 46.9333 251.299 48.4907 251.235 50.048H237.283C237.283 51.6053 237.294 53.184 237.315 54.784C237.358 56.3627 237.39 57.984 237.411 59.648C237.454 60.992 237.752 61.9307 238.307 62.464C238.883 62.9973 239.8 63.264 241.059 63.264C242.254 63.264 243.107 62.9973 243.619 62.464C244.131 61.9307 244.419 60.992 244.483 59.648C244.526 59.008 244.547 58.1973 244.547 57.216C244.547 56.2347 244.526 55.1467 244.483 53.952H251.235C251.278 54.528 251.31 55.3173 251.331 56.32C251.352 57.3013 251.342 58.176 251.299 58.944C251.128 62.3573 250.264 64.8107 248.707 66.304C247.171 67.7973 244.632 68.544 241.091 68.544ZM237.283 45.088H244.547C244.568 44.0427 244.579 43.0187 244.579 42.016C244.579 41.0133 244.568 40.1387 244.547 39.392C244.526 38.624 244.504 38.0693 244.483 37.728C244.419 36.512 244.12 35.648 243.587 35.136C243.075 34.6027 242.222 34.336 241.027 34.336C239.768 34.336 238.862 34.6027 238.307 35.136C237.752 35.648 237.454 36.512 237.411 37.728C237.39 39.0293 237.368 40.288 237.347 41.504C237.326 42.72 237.304 43.9147 237.283 45.088ZM270.108 43.52C270.129 42.9867 270.14 42.3467 270.14 41.6C270.161 40.8533 270.161 40.128 270.14 39.424C270.14 38.72 270.14 38.1547 270.14 37.728C270.097 36.4693 269.799 35.5947 269.244 35.104C268.711 34.592 267.825 34.336 266.588 34.336C265.351 34.336 264.455 34.592 263.9 35.104C263.367 35.5947 263.079 36.4693 263.036 37.728C262.993 39.6267 262.961 41.4933 262.94 43.328C262.919 45.1413 262.908 46.944 262.908 48.736C262.908 50.528 262.919 52.3307 262.94 54.144C262.961 55.936 262.993 57.7707 263.036 59.648C263.079 60.992 263.377 61.9307 263.932 62.464C264.487 62.9973 265.404 63.264 266.684 63.264C267.879 63.264 268.743 62.9973 269.276 62.464C269.809 61.9307 270.097 60.992 270.14 59.648C270.161 58.9867 270.172 58.176 270.172 57.216C270.172 56.2347 270.151 55.1467 270.108 53.952H276.86C276.903 54.5493 276.935 55.3387 276.956 56.32C276.977 57.3013 276.967 58.176 276.924 58.944C276.775 62.3573 275.911 64.8107 274.332 66.304C272.753 67.7973 270.204 68.544 266.684 68.544C263.079 68.544 260.455 67.7973 258.812 66.304C257.169 64.8107 256.263 62.3573 256.092 58.944C256.049 57.728 256.017 56.2453 255.996 54.496C255.975 52.7253 255.964 50.88 255.964 48.96C255.964 47.0187 255.975 45.152 255.996 43.36C256.017 41.568 256.049 40.032 256.092 38.752C256.327 35.2747 257.244 32.7893 258.844 31.296C260.465 29.8027 263.047 29.056 266.588 29.056C270.151 29.056 272.732 29.792 274.332 31.264C275.932 32.7147 276.796 35.1253 276.924 38.496C276.945 39.264 276.945 40.1493 276.924 41.152C276.924 42.1333 276.903 42.9227 276.86 43.52H270.108ZM294.199 68.544C290.273 68.544 287.489 67.7973 285.847 66.304C284.225 64.8107 283.415 62.3573 283.415 58.944V34.912H280.279V29.6H283.479V18.72H290.423V29.6H296.535V34.912H290.327V59.712C290.327 61.056 290.561 61.9947 291.031 62.528C291.521 63.04 292.588 63.296 294.231 63.296C294.785 63.296 295.276 63.2853 295.703 63.264C296.129 63.2427 296.62 63.2107 297.175 63.168V68.224C296.727 68.3307 296.247 68.4053 295.735 68.448C295.244 68.512 294.732 68.544 294.199 68.544ZM300.197 68V29.6H307.109V33.824H308.389C308.666 32.1813 309.221 31.04 310.053 30.4C310.906 29.76 312.026 29.44 313.413 29.44C313.861 29.44 314.298 29.4507 314.725 29.472C315.173 29.4933 315.525 29.5147 315.781 29.536V34.912H313.477C311.365 34.912 309.84 35.264 308.901 35.968C307.984 36.672 307.386 37.7173 307.109 39.104V68H300.197ZM318.714 22.976V16.8H326.874V22.976H318.714ZM319.322 68V29.6H326.234V68H319.322ZM333.536 68V34.912H329.889V29.6H333.536V25.76C333.515 22.3467 334.358 19.904 336.065 18.432C337.771 16.9387 340.427 16.192 344.033 16.192C344.694 16.192 345.398 16.2347 346.145 16.32C346.913 16.4053 347.627 16.512 348.289 16.64V21.76C347.627 21.7173 346.934 21.6853 346.208 21.664C345.505 21.6427 344.79 21.632 344.065 21.632C342.827 21.632 341.91 21.92 341.313 22.496C340.715 23.072 340.427 23.9893 340.449 25.248V29.6H346.977V34.912H340.449V68H333.536ZM352.492 81.248C351.852 81.248 351.116 81.2053 350.284 81.12C349.452 81.056 348.705 80.9707 348.044 80.864V75.648C348.598 75.6907 349.313 75.7333 350.188 75.776C351.084 75.8187 351.841 75.84 352.46 75.84C354.102 75.84 355.222 75.5627 355.82 75.008C356.438 74.4747 356.833 73.536 357.004 72.192L357.548 68H353.42L347.34 29.6H354.38L356.332 47.648L357.996 62.816H359.948L361.132 47.648L362.828 29.6H369.836L363.916 71.68C363.596 73.9413 363.03 75.776 362.22 77.184C361.43 78.592 360.257 79.616 358.7 80.256C357.142 80.9173 355.073 81.248 352.492 81.248ZM396.85 68.544C392.967 68.544 390.194 67.7227 388.53 66.08C386.887 64.4373 386.034 61.7173 385.97 57.92C385.927 55.5307 385.895 53.024 385.874 50.4C385.853 47.776 385.842 45.1093 385.842 42.4C385.842 39.6907 385.853 37.024 385.874 34.4C385.895 31.7547 385.927 29.2267 385.97 26.816C386.013 23.488 386.887 20.9067 388.594 19.072C390.301 17.216 393.042 16.288 396.818 16.288C400.573 16.288 403.293 17.1093 404.978 18.752C406.663 20.3733 407.57 23.0827 407.698 26.88C407.719 27.6267 407.73 28.5227 407.73 29.568C407.73 30.592 407.719 31.616 407.698 32.64C407.677 33.6427 407.655 34.528 407.634 35.296H400.722C400.743 34.3573 400.754 33.3227 400.754 32.192C400.775 31.0613 400.786 29.9307 400.786 28.8C400.786 27.648 400.775 26.6027 400.754 25.664C400.733 24.4053 400.391 23.4773 399.73 22.88C399.09 22.2827 398.119 21.984 396.818 21.984C395.517 21.984 394.546 22.2827 393.906 22.88C393.266 23.4773 392.925 24.4053 392.882 25.664C392.797 28.3733 392.733 31.136 392.69 33.952C392.669 36.7467 392.658 39.5627 392.658 42.4C392.658 45.2373 392.669 48.064 392.69 50.88C392.733 53.696 392.797 56.448 392.882 59.136C392.925 60.3947 393.266 61.3333 393.906 61.952C394.567 62.5493 395.549 62.848 396.85 62.848C398.237 62.848 399.271 62.5493 399.954 61.952C400.637 61.3333 400.989 60.3947 401.01 59.136C401.031 58.176 401.042 57.1093 401.042 55.936C401.063 54.7413 401.063 53.5573 401.042 52.384C401.021 51.2107 400.999 50.144 400.978 49.184H407.922C407.965 50.592 407.986 52.0533 407.986 53.568C408.007 55.0613 407.997 56.512 407.954 57.92C407.826 61.7173 406.898 64.4373 405.17 66.08C403.463 67.7227 400.69 68.544 396.85 68.544ZM413.197 68V16.8H420.109V33.376H421.389C422.157 31.968 422.989 30.9013 423.885 30.176C424.802 29.4293 426.125 29.056 427.853 29.056C430.2 29.056 432.002 29.7707 433.261 31.2C434.52 32.608 435.149 34.9653 435.149 38.272V68H428.237V37.696C428.237 36.48 427.97 35.5947 427.437 35.04C426.904 34.4853 426.104 34.208 425.037 34.208C424.013 34.208 423.032 34.4853 422.093 35.04C421.176 35.5947 420.514 36.4267 420.109 37.536V68H413.197ZM440.527 22.976V16.8H448.687V22.976H440.527ZM441.135 68V29.6H448.047V68H441.135ZM467.733 43.52C467.754 42.9867 467.765 42.3467 467.765 41.6C467.786 40.8533 467.786 40.128 467.765 39.424C467.765 38.72 467.765 38.1547 467.765 37.728C467.722 36.4693 467.424 35.5947 466.869 35.104C466.336 34.592 465.45 34.336 464.213 34.336C462.976 34.336 462.08 34.592 461.525 35.104C460.992 35.5947 460.704 36.4693 460.661 37.728C460.618 39.6267 460.586 41.4933 460.565 43.328C460.544 45.1413 460.533 46.944 460.533 48.736C460.533 50.528 460.544 52.3307 460.565 54.144C460.586 55.936 460.618 57.7707 460.661 59.648C460.704 60.992 461.002 61.9307 461.557 62.464C462.112 62.9973 463.029 63.264 464.309 63.264C465.504 63.264 466.368 62.9973 466.901 62.464C467.434 61.9307 467.722 60.992 467.765 59.648C467.786 58.9867 467.797 58.176 467.797 57.216C467.797 56.2347 467.776 55.1467 467.733 53.952H474.485C474.528 54.5493 474.56 55.3387 474.581 56.32C474.602 57.3013 474.592 58.176 474.549 58.944C474.4 62.3573 473.536 64.8107 471.957 66.304C470.378 67.7973 467.829 68.544 464.309 68.544C460.704 68.544 458.08 67.7973 456.437 66.304C454.794 64.8107 453.888 62.3573 453.717 58.944C453.674 57.728 453.642 56.2453 453.621 54.496C453.6 52.7253 453.589 50.88 453.589 48.96C453.589 47.0187 453.6 45.152 453.621 43.36C453.642 41.568 453.674 40.032 453.717 38.752C453.952 35.2747 454.869 32.7893 456.469 31.296C458.09 29.8027 460.672 29.056 464.213 29.056C467.776 29.056 470.357 29.792 471.957 31.264C473.557 32.7147 474.421 35.1253 474.549 38.496C474.57 39.264 474.57 40.1493 474.549 41.152C474.549 42.1333 474.528 42.9227 474.485 43.52H467.733ZM486.352 68.448C483.898 68.448 482.085 67.808 480.911 66.528C479.76 65.2267 479.066 63.1253 478.832 60.224C478.81 59.7547 478.789 59.2427 478.768 58.688C478.768 58.1333 478.778 57.632 478.799 57.184C478.928 55.5627 479.258 54.144 479.792 52.928C480.346 51.712 481.2 50.624 482.352 49.664C483.504 48.704 485.05 47.7867 486.992 46.912C488.016 46.4427 489.04 46.016 490.064 45.632C491.109 45.2267 492.165 44.8533 493.232 44.512V37.952C493.232 36.736 492.997 35.8293 492.528 35.232C492.058 34.6347 491.162 34.336 489.84 34.336C488.709 34.336 487.888 34.592 487.376 35.104C486.885 35.5947 486.608 36.4693 486.544 37.728C486.522 38.1333 486.501 38.6987 486.48 39.424C486.48 40.1493 486.48 40.896 486.48 41.664C486.501 42.4107 486.522 43.0293 486.544 43.52H479.824C479.802 42.9867 479.781 42.208 479.76 41.184C479.738 40.16 479.738 39.2533 479.76 38.464C479.845 36.2667 480.229 34.4747 480.911 33.088C481.594 31.7013 482.672 30.688 484.144 30.048C485.616 29.3867 487.578 29.056 490.032 29.056C492.592 29.056 494.597 29.4187 496.048 30.144C497.52 30.848 498.565 31.968 499.184 33.504C499.802 35.04 500.112 37.0453 500.112 39.52L500.08 68H493.168V64.192H492.208C491.589 65.6213 490.842 66.688 489.968 67.392C489.114 68.096 487.909 68.448 486.352 68.448ZM489.072 63.392C490.032 63.392 490.853 63.1147 491.536 62.56C492.24 62.0053 492.794 61.2373 493.2 60.256V49.312C492.453 49.5467 491.706 49.824 490.96 50.144C490.213 50.4427 489.456 50.848 488.688 51.36C487.514 52.064 486.725 52.9067 486.32 53.888C485.936 54.848 485.712 55.9467 485.648 57.184C485.626 57.5893 485.616 58.0053 485.616 58.432C485.616 58.8587 485.626 59.2853 485.648 59.712C485.754 60.9067 486.096 61.824 486.672 62.464C487.269 63.0827 488.069 63.392 489.072 63.392ZM515.896 79.648C512.611 79.648 510.093 79.1787 508.344 78.24C506.616 77.3013 505.613 75.8933 505.336 74.016C505.293 73.7813 505.251 73.4933 505.208 73.152C505.187 72.8107 505.187 72.4693 505.208 72.128C505.315 71.04 505.731 70.1227 506.456 69.376C507.203 68.6293 508.152 68.1813 509.304 68.032V66.944C508.259 66.7093 507.427 66.304 506.808 65.728C506.211 65.1307 505.848 64.3627 505.72 63.424C505.699 63.168 505.688 62.9227 505.688 62.688C505.688 62.432 505.699 62.1547 505.72 61.856C505.827 60.9387 506.253 60.192 507 59.616C507.747 59.0187 508.664 58.6453 509.752 58.496V57.408C508.259 56.7253 507.149 55.6907 506.424 54.304C505.72 52.9173 505.293 51.104 505.144 48.864C505.123 47.8187 505.101 46.8907 505.08 46.08C505.059 45.2693 505.048 44.5013 505.048 43.776C505.048 43.0293 505.059 42.2507 505.08 41.44C505.101 40.6293 505.123 39.7333 505.144 38.752C505.272 36.4907 505.688 34.656 506.392 33.248C507.117 31.8187 508.237 30.7627 509.752 30.08C511.288 29.3973 513.325 29.056 515.864 29.056C518.339 29.056 520.291 29.3867 521.72 30.048C523.171 30.688 524.269 31.712 525.016 33.12H526.104C526.253 31.904 526.691 31.0187 527.416 30.464C528.141 29.888 529.208 29.6 530.616 29.6V34.912H529.592C528.632 34.912 527.885 35.2107 527.352 35.808C526.819 36.384 526.541 37.3547 526.52 38.72L526.488 41.408C526.509 42.0693 526.52 42.688 526.52 43.264C526.52 43.84 526.52 44.416 526.52 44.992C526.52 45.5467 526.509 46.1333 526.488 46.752C526.488 47.3707 526.467 48.0747 526.424 48.864C526.296 51.1893 525.859 53.0667 525.112 54.496C524.387 55.9253 523.277 56.96 521.784 57.6C520.291 58.2187 518.296 58.528 515.8 58.528C513.987 58.5067 512.717 58.6667 511.992 59.008C511.288 59.3493 510.936 59.904 510.936 60.672V60.96C510.936 61.4507 511.043 61.8453 511.256 62.144C511.491 62.4213 511.949 62.624 512.632 62.752C513.336 62.88 514.403 62.9653 515.832 63.008C519.587 63.0933 522.371 63.7013 524.184 64.832C525.997 65.9413 527.064 67.7013 527.384 70.112C527.427 70.4747 527.448 70.848 527.448 71.232C527.448 71.616 527.427 72.0427 527.384 72.512C527.213 74.2187 526.669 75.5947 525.752 76.64C524.835 77.6853 523.555 78.4427 521.912 78.912C520.269 79.4027 518.264 79.648 515.896 79.648ZM516.056 74.752C517.165 74.752 518.115 74.656 518.904 74.464C519.715 74.2933 520.344 74.0053 520.792 73.6C521.261 73.1947 521.549 72.672 521.656 72.032C521.741 71.7333 521.773 71.4453 521.752 71.168C521.752 70.912 521.709 70.6453 521.624 70.368C521.496 69.6853 521.197 69.1627 520.728 68.8C520.28 68.4373 519.661 68.1813 518.872 68.032C518.104 67.8827 517.176 67.7973 516.088 67.776C514.424 67.7333 513.176 67.904 512.344 68.288C511.512 68.6933 511.011 69.3867 510.84 70.368C510.776 70.6453 510.744 70.9227 510.744 71.2C510.744 71.4987 510.765 71.776 510.808 72.032C510.915 72.7147 511.171 73.248 511.576 73.632C512.003 74.0373 512.589 74.3253 513.336 74.496C514.083 74.6667 514.989 74.752 516.056 74.752ZM515.8 53.28C517.229 53.28 518.2 52.992 518.712 52.416C519.245 51.8187 519.555 50.9333 519.64 49.76C519.683 48.9707 519.715 48.0747 519.736 47.072C519.757 46.048 519.768 44.992 519.768 43.904C519.768 42.816 519.757 41.7493 519.736 40.704C519.715 39.6587 519.683 38.72 519.64 37.888C519.555 36.6293 519.235 35.7227 518.68 35.168C518.125 34.6133 517.165 34.336 515.8 34.336C514.413 34.336 513.432 34.6133 512.856 35.168C512.28 35.7227 511.971 36.6507 511.928 37.952C511.885 39.0827 511.853 40.1813 511.832 41.248C511.811 42.3147 511.8 43.3387 511.8 44.32C511.8 45.3013 511.811 46.24 511.832 47.136C511.853 48.0107 511.885 48.8427 511.928 49.632C511.992 50.784 512.28 51.68 512.792 52.32C513.325 52.96 514.328 53.28 515.8 53.28ZM543.501 68.544C540.941 68.544 538.893 68.192 537.357 67.488C535.842 66.784 534.733 65.6533 534.029 64.096C533.325 62.5387 532.898 60.4907 532.749 57.952C532.706 56.736 532.664 55.3387 532.621 53.76C532.6 52.1813 532.589 50.5493 532.589 48.864C532.589 47.1787 532.6 45.536 532.621 43.936C532.664 42.336 532.706 40.896 532.749 39.616C532.898 37.0987 533.325 35.072 534.029 33.536C534.733 31.9787 535.842 30.848 537.357 30.144C538.893 29.4187 540.941 29.056 543.501 29.056C546.104 29.056 548.152 29.4187 549.645 30.144C551.16 30.848 552.269 31.9787 552.973 33.536C553.677 35.072 554.093 37.0987 554.221 39.616C554.264 40.8533 554.296 42.2613 554.317 43.84C554.338 45.3973 554.349 47.0293 554.349 48.736C554.349 50.4213 554.338 52.064 554.317 53.664C554.296 55.2427 554.264 56.672 554.221 57.952C554.093 60.4693 553.677 62.5067 552.973 64.064C552.269 65.6213 551.16 66.7627 549.645 67.488C548.152 68.192 546.104 68.544 543.501 68.544ZM543.501 63.264C544.845 63.264 545.805 62.976 546.381 62.4C546.957 61.824 547.256 60.896 547.277 59.616C547.341 57.7387 547.384 55.904 547.405 54.112C547.448 52.32 547.469 50.5387 547.469 48.768C547.469 46.9973 547.448 45.2267 547.405 43.456C547.384 41.664 547.341 39.8293 547.277 37.952C547.256 36.6933 546.957 35.776 546.381 35.2C545.826 34.624 544.866 34.336 543.501 34.336C542.178 34.336 541.218 34.624 540.621 35.2C540.024 35.776 539.704 36.6933 539.661 37.952C539.618 39.8293 539.576 41.664 539.533 43.456C539.512 45.248 539.501 47.0293 539.501 48.8C539.501 50.5707 539.512 52.352 539.533 54.144C539.576 55.936 539.618 57.76 539.661 59.616C539.704 60.896 540.024 61.824 540.621 62.4C541.218 62.976 542.178 63.264 543.501 63.264Z" fill="black"/>
<rect width="53" height="82" fill="#41B6E6"/>
<path d="M117.234 51.6183L117.234 46.2784L106.688 46.2786L106.688 40.2899L117.234 40.2899L117.234 34.9502L106.688 34.9502L106.688 28.1798L101.577 28.1798L101.577 58.3887L106.688 58.3888L106.688 51.6182L117.234 51.6183Z" fill="#33342E"/>
<path d="M98.9071 56.3776L98.9071 30.1913C92.6906 30.7543 84.2459 32.7854 81.9555 39.5082L74.1527 39.5082C72.317 39.5083 70.8151 41.0102 70.8151 42.8458L70.8151 43.7225C70.8151 45.5583 72.317 47.0602 74.1528 47.0601L81.9554 47.0602C84.2456 53.7833 92.6903 55.8146 98.9071 56.3776Z" fill="#33342E"/>
</svg>
