<svg width="200" height="150" viewBox="0 0 200 150" fill="none" xmlns="http://www.w3.org/2000/svg">
<path d="M200 48.0504V132.086C200 141.399 191.964 149.02 182.143 149.02H17.8571C8.03571 149.02 0 141.399 0 132.086V48.0504C3.34821 51.543 7.14286 54.6123 11.2723 57.2582C29.7991 69.2179 48.5491 81.1776 66.7411 93.7723C76.1161 100.334 87.7232 108.378 99.8884 108.378H100.112C112.277 108.378 123.884 100.334 133.259 93.7723C151.451 81.2834 170.201 69.2179 188.839 57.2582C192.857 54.6123 196.652 51.543 200 48.0504ZM200 16.934C200 28.7879 190.737 39.4775 180.915 45.9336C163.504 57.3641 145.982 68.7946 128.683 80.3309C121.429 85.0936 109.152 94.8307 100.112 94.8307H99.8884C90.8482 94.8307 78.5714 85.0936 71.317 80.3309C54.0179 68.7946 36.4955 57.3641 19.1964 45.9336C11.2723 40.8534 0 28.8937 0 19.2625C0 8.89037 5.91518 0 17.8571 0H182.143C191.853 0 200 7.62032 200 16.934Z" fill="white"/>
</svg>
