<svg width="20" height="20" viewBox="0 0 20 20" fill="none" xmlns="http://www.w3.org/2000/svg">
<path d="M10 0C4.47708 0 0 4.47708 0 10C0 15.5229 4.47708 20 10 20C15.5219 20 20 15.5229 20 9.99896C20 4.47708 15.5219 0 10 0ZM9.84271 15.8323H9.78958C8.975 15.8083 8.4 15.2073 8.42396 14.4042C8.44688 13.6146 9.03542 13.0406 9.82292 13.0406L9.87083 13.0427C10.7083 13.0667 11.2771 13.6615 11.2531 14.4875C11.2292 15.2792 10.651 15.8323 9.84271 15.8323ZM13.2708 9.02917C13.0792 9.3 12.6583 9.63958 12.1271 10.0531L11.5417 10.4562C11.2208 10.7062 11.0271 10.9427 10.9552 11.1729C10.8969 11.3542 10.8698 11.4031 10.8646 11.7729V11.8667H8.63021L8.63646 11.6771C8.66458 10.9021 8.68333 10.4437 9.00521 10.0656C9.51042 9.47396 10.625 8.75521 10.6719 8.725C10.8323 8.60521 10.9667 8.46875 11.0667 8.32187C11.301 7.99792 11.4042 7.74375 11.4042 7.49583C11.4042 7.14792 11.3021 6.82604 11.099 6.54167C10.9031 6.26458 10.5312 6.12708 9.99375 6.12708C9.46042 6.12708 9.09479 6.29583 8.87708 6.64375C8.65208 6.99896 8.53854 7.37292 8.53854 7.75521V7.85104H6.23542L6.23958 7.75104C6.29896 6.34167 6.80312 5.32604 7.73437 4.73333C8.32083 4.35729 9.05104 4.16667 9.90208 4.16667C11.0146 4.16667 11.9563 4.4375 12.6958 4.97083C13.4469 5.51146 13.8271 6.32187 13.8271 7.37812C13.826 7.96875 13.6396 8.52396 13.2708 9.02917Z" fill="#0074FC"/>
</svg>
