<!-- Generated by IcoMoon.io -->
<svg version="1.1" xmlns="http://www.w3.org/2000/svg" width="768" height="768" viewBox="0 0 768 768">
<g id="icomoon-ignore">
</g>
<path fill="#000" d="M96 416h576c17.664 0 32-14.336 32-32s-14.336-32-32-32h-576c-17.664 0-32 14.336-32 32s14.336 32 32 32zM96 224h576c17.664 0 32-14.336 32-32s-14.336-32-32-32h-576c-17.664 0-32 14.336-32 32s14.336 32 32 32zM96 608h576c17.664 0 32-14.336 32-32s-14.336-32-32-32h-576c-17.664 0-32 14.336-32 32s14.336 32 32 32z"></path>
</svg>
