<!-- Generated by IcoMoon.io -->
<svg version="1.1" xmlns="http://www.w3.org/2000/svg" width="512" height="512" viewBox="0 0 512 512">
<g id="icomoon-ignore">
</g>
<path fill="#000" d="M507.44 463.248c6.096 6.096 6.096 15.984 0 22.096l-22.096 22.096c-6.112 6.096-16 6.096-22.096 0l-154.688-154.688c-1.68-1.68-2.8-3.664-3.552-5.776-31.728 23.184-70.688 37.024-113.008 37.024-106.032 0-192-85.968-192-192s85.968-192 192-192c106.032 0 192 85.968 192 192 0 42.32-13.84 81.28-37.024 113.008 2.112 0.752 4.096 1.856 5.776 3.552l154.688 154.688zM192 64c-70.688 0-128 57.312-128 128s57.312 128 128 128 128-57.312 128-128c0-70.688-57.312-128-128-128z"></path>
</svg>
